<mxfile host="65bd71144e">
    <diagram id="Ht1M8jgEwFfnCIfOTk4-" name="Page-1">
        <mxGraphModel dx="1038" dy="546" grid="0" gridSize="5" guides="1" tooltips="1" connect="1" arrows="1" fold="1" page="1" pageScale="1" pageWidth="3300" pageHeight="2339" background="#ffffff" math="0" shadow="1">
            <root>
                <mxCell id="0"/>
                <mxCell id="1" parent="0"/>
                <mxCell id="81" style="edgeStyle=orthogonalEdgeStyle;jumpStyle=line;jumpSize=6;html=1;entryX=1;entryY=0.5;entryDx=0;entryDy=0;entryPerimeter=0;fontSize=8;fontColor=#000000;startArrow=classic;startFill=1;strokeColor=#545454;strokeWidth=1;" parent="1" target="TTFCyIRM2Td2Y5yZrBj4-4" edge="1">
                    <mxGeometry relative="1" as="geometry">
                        <mxPoint x="1020" y="545" as="sourcePoint"/>
                    </mxGeometry>
                </mxCell>
                <mxCell id="62" style="edgeStyle=orthogonalEdgeStyle;html=1;entryX=1;entryY=0.5;entryDx=0;entryDy=0;entryPerimeter=0;fontSize=8;fontColor=#000000;startArrow=classic;startFill=1;strokeColor=#545454;exitX=0;exitY=0.5;exitDx=0;exitDy=0;exitPerimeter=0;jumpStyle=none;" parent="1" source="58" target="TTFCyIRM2Td2Y5yZrBj4-4" edge="1">
                    <mxGeometry relative="1" as="geometry"/>
                </mxCell>
                <mxCell id="20" value="Web UI / API" style="fillColor=none;strokeColor=#5A6C86;dashed=1;verticalAlign=top;fontStyle=0;fontColor=#000000;rounded=0;shadow=0;glass=0;labelBackgroundColor=none;sketch=0;spacing=-2;spacingLeft=0;spacingRight=160;" parent="1" vertex="1">
                    <mxGeometry x="650" y="475" width="240" height="240" as="geometry"/>
                </mxCell>
                <mxCell id="TTFCyIRM2Td2Y5yZrBj4-16" value="External Development" style="dashed=1;verticalAlign=top;fontStyle=0;spacingBottom=0;spacingRight=210;spacing=0;spacingTop=-3;labelBackgroundColor=none;rounded=0;fillColor=#CCCCCC;strokeColor=none;fontColor=#000000;glass=0;sketch=0;shadow=0;fontSize=8;" parent="1" vertex="1">
                    <mxGeometry x="470" y="230" width="310" height="140" as="geometry"/>
                </mxCell>
                <mxCell id="89" value="Internal Development&#10;" style="fillColor=#EFF0F3;strokeColor=#000000;dashed=0;verticalAlign=top;fontStyle=0;fontColor=#232F3D;rounded=1;shadow=0;glass=0;labelBackgroundColor=none;sketch=0;fontSize=8;spacingRight=40;spacing=-2;" parent="1" vertex="1">
                    <mxGeometry x="617.4" y="235" width="150" height="130" as="geometry"/>
                </mxCell>
                <mxCell id="TTFCyIRM2Td2Y5yZrBj4-13" value="AWS Cloud" style="points=[[0,0],[0.25,0],[0.5,0],[0.75,0],[1,0],[1,0.25],[1,0.5],[1,0.75],[1,1],[0.75,1],[0.5,1],[0.25,1],[0,1],[0,0.75],[0,0.5],[0,0.25]];outlineConnect=0;gradientColor=none;html=1;whiteSpace=wrap;fontSize=12;fontStyle=0;container=0;pointerEvents=0;collapsible=0;recursiveResize=0;shape=mxgraph.aws4.group;grIcon=mxgraph.aws4.group_aws_cloud;strokeColor=#232F3E;fillColor=none;verticalAlign=top;align=left;spacingLeft=30;fontColor=#232F3E;dashed=0;" parent="1" vertex="1">
                    <mxGeometry x="600" y="200" width="600" height="530" as="geometry"/>
                </mxCell>
                <mxCell id="112" style="edgeStyle=orthogonalEdgeStyle;jumpStyle=line;html=1;exitX=0.75;exitY=1;exitDx=0;exitDy=0;exitPerimeter=0;entryX=0;entryY=0.25;entryDx=0;entryDy=0;entryPerimeter=0;startArrow=classic;startFill=1;strokeColor=#545454;" parent="1" source="TTFCyIRM2Td2Y5yZrBj4-1" target="70" edge="1">
                    <mxGeometry relative="1" as="geometry"/>
                </mxCell>
                <mxCell id="TTFCyIRM2Td2Y5yZrBj4-1" value="" style="sketch=0;points=[[0,0,0],[0.25,0,0],[0.5,0,0],[0.75,0,0],[1,0,0],[0,1,0],[0.25,1,0],[0.5,1,0],[0.75,1,0],[1,1,0],[0,0.25,0],[0,0.5,0],[0,0.75,0],[1,0.25,0],[1,0.5,0],[1,0.75,0]];outlineConnect=0;fontColor=#232F3E;gradientColor=#F54749;gradientDirection=north;fillColor=#C7131F;strokeColor=#ffffff;dashed=0;verticalLabelPosition=bottom;verticalAlign=top;align=center;html=1;fontSize=12;fontStyle=0;aspect=fixed;shape=mxgraph.aws4.resourceIcon;resIcon=mxgraph.aws4.identity_and_access_management;" parent="1" vertex="1">
                    <mxGeometry x="880" y="360" width="40" height="40" as="geometry"/>
                </mxCell>
                <mxCell id="82" value="" style="edgeStyle=orthogonalEdgeStyle;jumpStyle=none;jumpSize=6;html=1;fontSize=8;fontColor=#000000;startArrow=classic;startFill=1;strokeColor=#545454;strokeWidth=1;" parent="1" source="TTFCyIRM2Td2Y5yZrBj4-2" target="TTFCyIRM2Td2Y5yZrBj4-1" edge="1">
                    <mxGeometry relative="1" as="geometry"/>
                </mxCell>
                <mxCell id="90" style="edgeStyle=orthogonalEdgeStyle;jumpStyle=none;jumpSize=6;html=1;entryX=1;entryY=0.5;entryDx=0;entryDy=0;fontSize=8;fontColor=#000000;startArrow=classic;startFill=1;strokeColor=#545454;strokeWidth=1;" parent="1" source="TTFCyIRM2Td2Y5yZrBj4-2" target="89" edge="1">
                    <mxGeometry relative="1" as="geometry"/>
                </mxCell>
                <mxCell id="TTFCyIRM2Td2Y5yZrBj4-2" value="Admin&lt;br style=&quot;font-size: 8px;&quot;&gt;Profile" style="sketch=0;outlineConnect=0;fontColor=#232F3E;gradientColor=none;fillColor=#BF0816;strokeColor=none;dashed=0;verticalLabelPosition=bottom;verticalAlign=top;align=center;html=1;fontSize=8;fontStyle=0;aspect=fixed;pointerEvents=1;shape=mxgraph.aws4.role;spacing=-2;" parent="1" vertex="1">
                    <mxGeometry x="820" y="288" width="42.55" height="24" as="geometry"/>
                </mxCell>
                <mxCell id="22" style="edgeStyle=orthogonalEdgeStyle;html=1;entryX=0;entryY=0.5;entryDx=0;entryDy=0;entryPerimeter=0;fontSize=11;fontColor=#000000;startArrow=classic;startFill=1;strokeColor=#545454;" parent="1" source="TTFCyIRM2Td2Y5yZrBj4-15" target="19" edge="1">
                    <mxGeometry relative="1" as="geometry">
                        <Array as="points">
                            <mxPoint x="580" y="500"/>
                            <mxPoint x="580" y="580"/>
                        </Array>
                    </mxGeometry>
                </mxCell>
                <mxCell id="TTFCyIRM2Td2Y5yZrBj4-15" value="Users" style="sketch=0;outlineConnect=0;gradientColor=none;fontColor=#545B64;strokeColor=none;fillColor=#879196;dashed=0;verticalLabelPosition=bottom;verticalAlign=top;align=center;html=1;fontSize=12;fontStyle=0;aspect=fixed;shape=mxgraph.aws4.illustration_devices;pointerEvents=1" parent="1" vertex="1">
                    <mxGeometry x="425" y="480" width="54.8" height="40" as="geometry"/>
                </mxCell>
                <mxCell id="11" style="edgeStyle=orthogonalEdgeStyle;html=1;entryX=0.5;entryY=0;entryDx=0;entryDy=0;fontColor=#000000;startArrow=classic;startFill=1;strokeColor=#545454;" parent="1" source="TTFCyIRM2Td2Y5yZrBj4-6" target="TTFCyIRM2Td2Y5yZrBj4-9" edge="1">
                    <mxGeometry relative="1" as="geometry"/>
                </mxCell>
                <mxCell id="12" style="edgeStyle=orthogonalEdgeStyle;html=1;entryX=0;entryY=0.192;entryDx=0;entryDy=0;entryPerimeter=0;fontColor=#000000;startArrow=classic;startFill=1;strokeColor=#545454;" parent="1" source="TTFCyIRM2Td2Y5yZrBj4-6" target="89" edge="1">
                    <mxGeometry relative="1" as="geometry"/>
                </mxCell>
                <mxCell id="TTFCyIRM2Td2Y5yZrBj4-6" value="GitHub" style="dashed=0;outlineConnect=0;html=1;align=center;labelPosition=center;verticalLabelPosition=bottom;verticalAlign=top;shape=mxgraph.weblogos.github;fontSize=8;spacing=-2;fontColor=#000000;" parent="1" vertex="1">
                    <mxGeometry x="527.4" y="240" width="40" height="40" as="geometry"/>
                </mxCell>
                <mxCell id="87" style="edgeStyle=orthogonalEdgeStyle;jumpStyle=none;jumpSize=6;html=1;entryX=-0.005;entryY=0.192;entryDx=0;entryDy=0;entryPerimeter=0;fontSize=8;fontColor=#000000;startArrow=classic;startFill=1;strokeColor=#545454;strokeWidth=1;exitX=1;exitY=0.25;exitDx=0;exitDy=0;" parent="1" source="TTFCyIRM2Td2Y5yZrBj4-9" target="89" edge="1">
                    <mxGeometry relative="1" as="geometry">
                        <Array as="points">
                            <mxPoint x="587.4" y="320"/>
                            <mxPoint x="587.4" y="260"/>
                        </Array>
                    </mxGeometry>
                </mxCell>
                <mxCell id="TTFCyIRM2Td2Y5yZrBj4-9" value="VS Code" style="shape=image;verticalLabelPosition=bottom;labelBackgroundColor=none;verticalAlign=top;aspect=fixed;imageAspect=0;image=data:image/png,iVBORw0KGgoAAAANSUhEUgAAAgAAAAIACAYAAAD0eNT6AAAABGdBTUEAALGPC/xhBQAAACBjSFJNAAB6JgAAgIQAAPoAAACA6AAAdTAAAOpgAAA6mAAAF3CculE8AAAABmJLR0QA/wD/AP+gvaeTAABl1UlEQVR42u3dd3gU1foH8PfM7mY3vRdC701QQDpiQKyIigr6s1/1Wi8XUZpgWVGkd6/3gvfasRAVARsC0qRIFZUOAUIIpNfNtpk5vz8gsNnsJrvJ9vl+noeHlG15Z3bPd86ZOYcIAAAAFIehBAAAQWrUClWPa9ulqsPV7TU6bVe1Sp1CjEUyRoKKqWIsolhksppOWY3WUyZD8RnDH79n52S+aEThAAEAACCYcM6uXfxH15j4+PtioyNHhYVpO7jzOc45UaXJklVaUvxdaXHx6qrDP2w7/aHehMIiAAAAQADqvWB3m/jUtMlxMbH3MSbEeOpxZZnzgpKStRfOnJl15NXrNhMRR7URAAAAwM8G/Odw/6TkpJk6bfhgbz9XpdGUn5tzdurvq1Z9SJv0IqqPAAAAAL5u+Jf+2TY1Ke1rkq1XWyrLSTRXkWw1k2y1EGOMiKlIpVaTKjyKNLpICouKJabSeOS5TRax4kx21hsHtq1eQpl6C7YGAgAAAHhZhn6jWtu65WuCpXKqqbRAkCWJiMuXfmvfO89tPsgZhUXFky4hhXSxyR75aLeIoiU3+9yiM7t/eCPvkwkGbB0EAAAA8IJh7/3ZWbCafzBXlrQizq+08S4EgCtfclKHhVNkagvSxad55HVZuWQ9dzZnYdae794sfH9SBbYUAgAAAHiq8V/062jRbP6Mc0lVq413MwAQv/gvLCaeYpp3JpVG65HXKMqynHMub2nuns2v5PzvyWJsNQQAAABohJsWbXnZbDK97fCX1Q07l90OAEREgkpNsa27UlhUgsder8w5nb+Q9032gc1jzr7zRC62IAIAAAC4g3N247xNCyySdazz27gYAC5/WzMAEBExgVFM804eGxK48vKJzufnfXvu0O8vnJp3zxlsUAQAAACoh16vF7ZGDPxAJHrEtrH2RgC4+AtGca2vIm1ssudzDBHlFxVtzz6097lTs+4+gK2LAAAAAA48tXSp5mR52zVWmd9c43Da2WH25WaW1+zqdxgWuM05AzUfgwkqSujYi9S6KK/9bSVl5XtOHT889qT+hu3Y0ggAAABwyWMfbNSdLpC2yJx61xzD934AICJSayMosXMfIiZ49e8sKa84nHX88Jis14f+QphdEAEAAEDJbl28M8ZkrtoryXI7u1bbZwGAiCg6vS1FpLb0yd9cbqg6mX36xPjDkwasJiIZewECAACAoty8YEsTk1U8wIkn1x6fdyMA2Db0DQwATBAoqesAEtRhPvv7K6uM58+dOvHyH5Pmf0qUKWGPCAwqlAAAwHtuX7SzfZXVdJATxV1sgd047mINOUarp8edy6RSa0gTFeezGoRpNNFJKal3tbzn1mei+v9f6QXz0T/o9Gn0CCAAAACEplsWbupdaTHvIyKd7561/iF3yWykiJTm5OtO4DC1OjIxMfGOtj3vfSGi3/3ShZgme+jQJvQIIAAAAISOmxdsGW60ihuJyENn3LnaWNcfALhoJV1sEgkanV9qo1artImJiTe269JnXMSgB3gUdd5dfOJHBAEEAACA4HbTgs1PmazS5/55dtdOulfrokgTGevXOqlVQlhCfPywxF7dJ8YOfjTeEpG8verQJqxAiAAAABB8bpi3aZpZlOfU2S5zN6+M406m/a3rSXgdJxhyTkyl8vjsgA1uiARBFRcb279pt36TYzMeTTXGdvjV+OePZuxN3oWrAAAAPHLgzdnQeZvetcr8GadH4zVm9nPxqP1yQy7b3JQ7uR+v3fA7DAAyaSKiKbFzv4AspcS5nFdY8PmJg7++mDf3kXzsXAgAAAABadSKFaqi7MSvrDK7q+6jcmcBoI4Q4DAAVH/R8AAghOkopdt1AV1XSeaUl1fwU+6R/c9gvQEEAACAgHLr4h+0JovuF1GmAU5acN8GgOr71BMAmCBQao8bgqLGnBPlFxaszTm2/59ZM+4+hr0OAQAAwL9H/v/aGJVfxX+TOXWpo/ly3Ma7Owzg4QBARJTW68agqjfnRAXFJTvOnDr83Gn9Tb9jD0QAAADwuRFzNyaVyfIBTiy9nmbLswHg8k2VFwBsy1FcVr739OmjL2S9MuRX7I0IAAAAPjF8wdY2FaJ1P+cU42KTVftLrwSASz8P8QBgq6zccPTUqaMvHZ86+AfCwkMIAAAA3nLjgo3XmKzyb0TMjcn0PXAegKcCgM3jhEIAqFZuMJ48m33ypUMT+q1GEEAAAADwqJsXbB1msFjWktuz+zkZBrC/nM/pokC2DTd3Hhi4gwBgf3ub50jreWPIbSOD0XwhJ+f0lD93zPyYMrHwUF0wERAAgAtumL/xfqNVXOW3AyfGPH5gG9WkbchtpzCNOiopMenOVp1uezZqwAPFF0xpf9LpTVh4CAEAAMB9GXM2TrJK8n8805A35s4IAK7SqFWRCQkJd7Tu3WdczHUP0/nIlF1YeAgBAADA1QaXDZk3ZJ4oya/6sdW3uTv36OOGcgC4HARUgjY+Lu6Gtl36Toi87qEwXUrKztLfN4nYtxEAAAAc0uu5QMM3fSZK8t8DKJB48KE4RaW3Vcz2VKsEdUJc3PXJHftNjL3+sQRzavPtVfvXK3rhIZwECABg56mlezRHyst/kmU+1CuNt8MFfVw9EZDX87gungTIOaX1ukmx29gqy/L587nLju/bPLlk2dNlCAAAAAo3av728DzJvE2W5R5eO3pv1JUACACeJHHO8woKPjv/x86XTi16IA8BAABAgYa/uzW+3GDZz2Vq6flHRwAIZDJxyi8sXnvurz1PK2XhIQQAAAAiunXxxmYVJn6Ac57gvWfhDtpkFwPA5cab12zsnU4yxB2HDZs1BdKuvREb3sEWKiwqWXfmxNGxZ9668TACAABACBu2YHNno0XcQ0QR3m9e7BtrdwNA9dcIAN5WXFK2Kzvr6LiT+hu2IwAAAISYmxZuHmwwixvJ7dn9EACUoqS8cu/pU0deyHplyDYKoWmGEQAAQLFumLvxLpMkr/TdMzpbGZAjAASBssqq4zmnTr94ZErf70MhCCAAAIAiZczdONYqyQt9+6x1BQD7Rt7JfavDQr0BwDYoIAB4NAgYTFm5Z0++GOwLDyEAAIDiDJn7y3SLxKf459k9dCIgAoDfVZrEvPxz2VP3b3vrw2BceAgBAACUQ68XBkdlvCdJ0uP+exGeOA8AASCQVJmtpefPnnnl91WrltImfdBMM4ypgAFAEUat4KokA18pyfL9of/Xcpd+p6SpgL1Jo1bpEhISbmvTu++4mOsepkjeaXfxiR8DvkcAAQAAQl6GfqOusurUVlHmNwRkO+1w0h4nt+e8nptyx7evdSeOAOBhapWgjYuLvSG+x9UTIgc/FqZLSdoRyAsPYQgAAELaHf/7Nbq4yLxblqljwB2dO+qyr/OuNbvwaw0BkN3jce4gYNjMBHgtZgL0JlHk1gsXzr+TtfvX1wvff6ICAQAAwEdumrM2pUrW/C5z3iTwDvsRAJRCkrl8Pi9/+bkD28ad+9ejRQgAAABedOvibW3LDcbfOWNRgffqOAKAIoMA8YLCgs9y9+4Zf/rd0RcQAAAAPH3kv2hrr0qjZScRqQPzFXoqADgJAQgAAU3mRMXFJetOH/njmeyZt2chAAAAeMDQ+RtuMlnop8D+fHM0F4ALIcA2ANTVC4AAEBQ4Jyoq9t/CQwgAABAyBs/Z+IQoyf8Ngo9+BACosVmLyyt2nT199KWsV4b8igAAAOCG62f/MsUq8+lB8pGPAAAON29pedW+M6cPjfXFwkMIAAAQ7J+abPCcTUuskvR8EL1ox5/+1b9zNhMgJyKyn+WP174Nl+yexvaxbWcCRAAIVGWGqhN52dkvHZzUe423ggACAAAErVErVqgunE76UpTke4IstXg3AFQ39AgAQa/caM65cPrUuIOTen9js/ERAABAwY2/fkXY+YiktZIkZwRhtwUCALjFYLLkXcjJmfrHDs8tPIQAAABBJ+NfG6MsFdIuzqlzcP4FCADQMEaztfDs6TNjD05Y9QWRvlE9AggAABBURszdk1RsLf1DJmoSvH8FAgA0ToXBlHvq+OHRJ18bvK2hj4HFgAAgaNyyYGOrUovxMCdKCuk/lLF6jttcOSeM1/tzLAYUvLRh6uiUtCaPx97wbA+mbb6q/NBatxcdElBGAAgGNy7YeE2ZSTzKiWJQDYCLUTA9Jf7OrqMeO9fy1XU9EAAAIOQMnrNhaKVJ2kvEwlANgJoidJr4q3v129d5zt4J7twPQwAAENAGzdrwsFXi31KonrPE7f4nJ9/b/rDWfRysMGg36c+V31/5WVTTdtjBQqU3gBElJibeqBn0WGL+D+/8hB4AAAjuI/9ZGyaJMv8YlQBwLQS0a5E+5up/HXvflcCMAAAAgXhYzAbO3DDHIvOZqAWAe1o3b/LYVUuOvFPf7TAEAAABRa/ngnjrhs8kTk+hGo0KUfX+HEMAoSs+Nqa31PPewuJ1y3ajBwAAAl6vpXs063Qb1ooy3Y9qADQcY0Sd2ndY0mTy2l7oAQCAgDZCvybCKkq/SZwGoBroAYDGEwRiMUlp91WFS0sMf2y3ogcAAALOsJnrYgt14X9KnK5GNQA8JyZcE9v0ujFfOwwIKA8A+NPAWb+mG7hwknNqg2oAeF6z1ISbm075aYj9zzEEAAB+c8Pc9V1MovQXJ67c2f0czddf3205r/t21esE1DVfABFFpWMIQAkYEWnjUm7MVp1eRIcOcfQAAIBfXT9nff9KCx0g4uGoBoB3JUbp0lt1e+Fh258hAACAzw2e+8vdJittJyI1qgHgGy3bdpxLo0apEAAAwC8GztjwjNkif41KAPhWXJQ2Mb3DM7chAACAzw2aueFNkfN/oxIA/pHetuO06q9xEiAAeB/nrH/4df+VZHoBxXBaJC/d1jmcBKg84TpdWq6Q+h/rXz8Z0AMAAF41asUK1YDZv3wjy/QEqgHgXxqBKPmqfvcTYQgAALwoQ79Rl5OVsF2S+F2oBkBgSEpr9igRzsAFAC8ZOOvXaLNs3i3JvCOqYY/X/yPu6DbcwX2448dxNldA9WNw7qGBBAg2cTEx19CtY7ToAQAAj7th4fpUUTYdk7iMxh8gwESEMRbX+rrOCAAA4FHDFv3aoqKKH+Wcp6EaAIEpNiX9WgQAAPCY6+eu711uMJ4golhUAyBwRSUkXoMAAAAeMWjO+mFGC99JRBpUAyCwRURGtUQAAIDGN/6zf3ncYuXrCFcWAQSFsLDwNnizAkCj9J+x/mWLKP0PlQAIHiq1KhGXAQJAA3E2YOaGuaLMX0QtAIILE4RYBAAAcNuoFStU2Sc2fGGV+L2oRmNzVPX/vAH3sf8B1ZwboNZjc8LF/0BExBjTIQAAgFt6Ld2jyc4qXStzPgTVAAheOAcAAFw/8p+/PVxTVPKbLKHxBwhmnDAVMAC46Ob52xPOmCoPcM6aoRoAwQ8BAADqlTFrY7MSo+EAJ5aAagCEBgwBAECdBs/a3Nkgicc4ERp/AAQAAFCCQTPWZRhFy1/EKRzVAEAAAAAF6D9r/V1mmTbicwIgNOEcAACopd/bP79otfJ5qIQ/2F3D7+BXF6/rr+eCfs4dzBdQ8/E55gRADwAAwCWs34z1M0WZofEHQA8AACiCXi/01Q56T5T44ygGAAIAAChAhn6jukojfitJfDiqAaAMGAIAUHrj/8FGXZVG3CFzQuMPgB4AAFCCvot/iDHkWvdwztqjGgAIAACghMZ/4fpUuYIf4JxSUQ0AZeGEIQAAZTb+sze3lwz8JBp/APQAAIBCXD93U+9Kk3k73v/+Pv6y+9L+mnzO677f5W95HY/H63g+TpgGQNnQAwCgIP1mbri10mT5DY0/ACAAACil8Z/+85NWUfqBiBiqAQAIAAAK0Gfm+ilWTu+hEgBQTYUSAIQwzlnvsEFLZZlPRDEUt/Hr/Xl0U1z9qVRmCQEAIGSNWrFCFbkq9yuZ00OoBgIAAgDYBwCcCAQQgrrqV4SdOh73M+d0PaoBAI4gAACEmAz9xqhKtbiLc94Z1QAABAAAJTT+czcmVZjE3znnTVGNIMFrfVH/bavnCOD13JA7eA7bKQEwEQACAAAEv8HzNjcvrzL/QURxqAYA1AeXAQKEgAHTf76mssp8Eo0/ALiCcwQAgKDXZ8aGoSaZ9hKRBtUAAPQAAChA37fX3yuK0ga8lwEAAQBAIXq/vW68VZIzUQkAaAicBAgQdDjr/fb62ZLEx6MWAIAAAKAEer1wrWbdR5KE2f0AAAEAQBF6Ld2jYQUlP0gyH4ZqhCD7+QAcXaTPHX3DHd+GcycX+l95fEwDgAAAAAGu//wV4Zb8kl8l4j1RDQBAAABQgGv0K+Mshsh9MvHWqAYAIAAAKOHI/60NTc1cOiATJaIaAOBJuAwQIEANnPVLRxMXj3E0/gCAAACgDH3eXt+/yiL+RcQiUA0AQAAAUIBr31p3p1WStxGG6ADAS3hQf8Bk6NUd+/QIN3NzJNeomEBqubI0x1DwbkEVkV7G5oVg1Gv6ujGSzBejEgDgbSxYXmirxz7QhXfq0EetjbxTpdKMIMbaO7mpLEvSftFs/lqsLPzh2NaZB2nTJhGbGgL9vXjtW+vfEmVpCkqhlOMvuy+5/XX9juYBsJ0jgF+6CXfwePzKbewf2+YxmvS9DZtCoSosPPADQNcZG9tpopJfIRIeIiKV+48gV1lM5tllf+5459zH/yjCZoeAo9cL12oGvidK8uMoBgIAAgAoPgB0eGtD04iY1PeJCTd5qK+DW42GRfm7vn+1IFNfic0PgSBDv1FdprKu4pzjkxgBAAEAFB4A9Hrhqti7nlerwxaSF05S5Jwbqorz7z+uH/K943cYgM8af12ZyrKZc+qDaiAAIACArwOAKpBeUPfxH0empd3wi0qlfpq8dH4CYywsLCLqgfghTzQtzC1eSwWHJOwK4GsDZ/0aXSmb93Oi7qgG+Et0s/YogkJZpAA6CfCq6TtTVTHRexixZr56TkmWjpQe2HXD2fefyMXuAL7Se/bGNNFkPcCJp6Aa6AFADwD4qwcgIOYBaPfmtrbqmOgjvmz8iYhUgqpTQo/+We30v4ymILoiAoJXnzfXthZNlqNo/AHA3/w+BNB99p6e2uiYPUQs2h/Pz4jUYRFRo+KHPJpUWMzW0fm9mEMAvKLnjF96iZL8OxFhdj8ICBgCUC6L5OcAcNXsPTcJ4eEbiUjr9ySkCeuTdNW1d1OTbt9U/f4DrhIAj+o9Y/0tokXcRJjdD5zidX5b42eXu/HreTxHown8yjdRTREAFBsAZD9OBXzV3H0Pq8LD1wbSB6Jare7apGfG6TZTfhpOGBIATx35T/v5IYtF+pEw9TYABBC/fCB1X3hggkqr/TgQC8IYaaObNP+u48w9C6hXLw12EWiMXtN/niRx/gkqAQCBhHOfDwFw1m3hqCWCSjU10IujDtP0S77qjls0qc2/qTiwwYjdBdzd13tMG7BIkmkqagEu7jMevi2v9+fRGAJQLN9eBjhqharboM6fCYIwOpiKJEvcUJ5/csSZt+/cRJg4CFzZ1UetUJ3oFveFzPm9qAa43DhzufYhmqPDNtvbOroMsPoXXHZ8iaHN8zTpg8sAlcpnEwG1G7NY26xHnx8FQRgRbEViAgvTRSc8Gjf4YXXRhpNbiE7jKgFwqtfSPZqiKL5W5nw4qgHoAYBA7gHwegBoN+bTmIj2A35jjPUL5mKpw7SDE4bdNMyaFLfS/OevJuw+UKvx16+JkA3mXTKnfqgGIABAoAcAr54E2HrKqtSI9j0OMkZXhULBwsI0A1r0ffhU85e+7o3dB2z1eXt9osg0R2VimNoXgiNucG4gIiyVrmBe6wHopN/YKjK5+e9ElBZKBWOMdOHxSU/GDXhALtr4/jbCeQGK13fWD81MFn6YiKWiGtDgA3/7qYA5r+dO3MHXdo/HHU4EQGaLZbec/9e1sZ2ue5IwMZViewC8chJg5+k7emqiY34lovBQLqBktfyct/nzewtXz67A7qTQxv/t9V2MVmkvEelQDXC/1bdtsGXXAwCXqe61AC7dxkEAqCwrW5D17qcTiTaJN39TUUBESdgeylPpjbUAOs3eeZMmOua3UG/8iYhUmrCbUoc+ktXyhS96YndSnmvfXJdhtEp/ovGHoDhgkWVLYUHeTVnvPvki0SZ0/YNnA0DnufseDtNF/0QKmu5UJbCkmDbd9rR/c+tYwkxvitFDv/ZeiyxvxDaHYGCyWg+fOba7ee5//7EO1QCPB4Cr5u+foAnTfkwKnEKXEbHw2ISFHefsW5Oc8VwUdqvQ1nPaun9IjDJRCQgGBmPVkmN7lnWvXDk3H9UAu7arsfRCtwV3L2Yq1fMoJ5Ekibklp/cMzV30xFFUI/TeL9dM+2mmzNlElAIax/vnAEiSKBaUFN2Xv/SZb5w9DM4BUK5KC29kABi1QnXVgE6fCSrVaJTT5v3HSTKU5P8jSz9kGRFh4qBQoNcL16j6vy/L9CiKAYEeAMxWy7GSsycG538+Na+uV4EAoFwVjQkAXfUrwoT4zt8zJgxDKR2zmE1fVH4z8/GcHZlYSyCIZeg3qksFyyqZE+ZNhYAPAJVG64dZm9Y/RXuXWet7FQgACABuazfm05jw9j1+JU7dUMa6yZJ0tvD4noy8fz+ehWoEZeOvK2aWrZzza1EN8GoAIBfmAeC2v6sZAGROvKS89KHcd/72mauv4uavEQAUGwCsDbgMsO34b1Ii2vf8A42/awSVqnlKp77H2uk3PkQKPEEymPWauS62mEwH0fhDoLOKUnZuTnYrdxp/ALcCQMdX1raObN7xIOe8JUrnFlV4fMonHWb89hFlPIZrxoNA3+nrU60W+Sgn1gbVgEBmNJs+O5L1V/uSj8dmoxrgDpePSDtN+6WXJjZ1Kylggh9vkrl0pGzftmE5Hz97DtUITH3eXt/BaBH3E6ZIBa9p/BAA55yXVhieyln8wP+ogVOSYwhAuVweAug0Y+dNmtjUnWj8G09gqk5xPQdnNZ+69j7CkEDA6TXtl75Gi/gXGn8IZFZJyis4f65dzuIH/ktYjwQa2h7Vd4POM3ffr4lQ1ux+3sYYhcWlNPui06zfFlPXUWGoSGC4Rv/zbRbZsoOINKgGBCqDybLmyI4DrfLefw4nFkPj2qI6G/85e6eqw3RvoUzeI0nWA0X7192U98kEzNLlR93fWPss5/xdVAJ8w/0hAFnmVGqofPbcgv9b6qmjfgwBKFedQwBd5/0+DY2/96lUmquTrr3tTKvJ399CGBLwi6un/fwaGn8IZFZRLioqK+t6bsH//YfQ5Q+ean+cNf5MrXkV5fENRqQOi457KHrQw5oS+eQWOn0aswf65CCMs6tVA5ZKMh+PYkAA7I8OOwlMZvEny4XivjnLHj3v6adsd9+UiRznuyiSWXZwxNlx1s57NbpoLHTiJ6LVsrti24+3nls5pQjV8J5RK1aojh6K+UYmugPVAD+09rW/5HKtQFBuMk/KnnPPHG8d9d/8dUUBxxCAIlVY7WYCbDNpTYuI9DbHiQgnpvn1o4GXl545evO5+ffsRDU8r93iH7ThJcJGzqk/qgGBGABEiZcXV5Zfl7/ogT+8+SoQAJQdAGzPAWAR6W2+ROPvf4xYTHzLTjvaT98+jSgDV194UIZ+Y1R4ifA7Gn8IVEaLuK0kuzjd240/wOUegE4zdt6jjoj+CiUJLKJk2ZT3wxd3layfVYZqNE53/doUTvwAJ0pDNSDQegC4LJPBYn759Ky7Z5GPTvRDDwB6AIj0ekEVET0XJQk8alVYRvrwR840G/9tX1Sj4Xq8taElZ3QMjT8EIknmhuLKqsGnZ909k3CWP/iIQETUTnvjMEbUCuUITEyg2Njm7Xe0mbblBXJy5QY4d/W0dT2sovUY5zwW1YBAY7aKOwtVlWnnF4zaimqAzwOANjz2RZQiwEMAEYuITVzQcfa+75LumBiNirjmqjfW3ijJ0h7CuS0QYDgnqjRJs46H7R1YoB9diYqAr6mTn1sRRcRu5Oh0Co4NFqa9JTnjoePqlt2HXljy0CFUxLnu0356RJL4R6gEBBpZ4tYSg+nGCwvu3uzX14FNoewegIQmTfuQm8sCg583mqBKTWzX46/Wb2wZg23npPF/Y+0ESSI0/hBwLJJ8MFeUU/3d+AMI6ojIm1GGIMSJRcQmLm4/a3dm+oinMJPX5bpw1u2NtYslmc9GMSDQVJrFBcfVu7qXzby9BNUAf1OTStMbZQheYdqIu1UZ/+hLzfrekPvvJ44quhh6vXDVGz99LHP2IPYMCCSyLIvFJnFk3pw7vkM1IGB6AIioHcoQ3FQqVdP4jv0Otpy6/kFS6IJCvZbu0XSj/us4Gn8IMFZROpojmtLQ+EMg4fxiAIhDKUIjB0QlN/m0/exdn1LGYzpFNf76NRHm3KJdMudDsRtAIDGarB8cO2boWjHjbqztAQFHTVgJKqSEhUU+0HHEuH4VLfoPyf346exQ/3u7zdgabzIZfifiLbD1IVBIMudlVZZ7z8+78xtUAwKVQERWlCHEUp1K3Sa256CsUB8SuPqtDU1lU+UJIkLjDwFDlKXsQrOlGRp/CIYegApOXIdShBZGpIpMTvu07fSdg09+Nm8MHcy0hNLf10P/QxezxbyXiLDvQsAwWuVPTmkjHqfZQ8RgeL2cOCYeVnIPACf5LMoQurSRUU91fPyVA0mPL0kPlb+p27Qf+5tlOnCl8ccnGPi7ISVeUSU+fmrG8EdIHxyNP4DAZf4nyhDaVCpVp+RuQ7KaTvj+dgryIYGur/xwryTybXSx96rmRzCCAPiByCm/uEJqd3buiA9QDQiqACBZzRtQhtDHGGljm7Zc03b6jkXUq5cmKBv/19Y8zxnPrDvEIASA71hEvlqjqmiet+D2LFQDgi8AlBdvQhmUQxsZPabD//13f8qTC1ODKb90ffX7GZwL71xs4+tr5BECwLs4EVWarc+cePu2Ow/qR1tQEQjKA0Mioi4L/zpFWA5YWR9gslxVcf70bTlz7gjs+cj1euEqseeHMhMettllbfZg5souDuAxosSLSixV/Qvm3Hs82P+WYV+XFxCnJGxV5am0XlpIRhTNi1EOhSU/QYiITm+zqfX0nbMpI0MdiK8xQ69Xd5V6rZKJPXzlqN9urB+9AeBDJkleZ9GENwuFxh/gYgAoKH6fiNCNpbQQwIjCI6MmtL99wZbYB2bEB1bj/4GuQOy5nXO63XFjjxAAvsOJqMJkGZ81ffjNp/VDTKgIhEQbUP1Fx7kHZgsq1QSURKEfcJwbys6fvPX8nLu2+vu1tJm0IlanDt/D61qngtX64tK3goPbOLwjgEskmVdWVlkH586/c3+o/W03YAhAsQxW27Xk80+/SUTlKItSewNYZFzTdptbTds+mYhU/nodnad83USn0R3j9S1SxW2/sO0NkGvehqM3ABrOLEpbK/Ol1FBs/AEuB4Cjs++skI2VT6AkSu4GIBYeHTOj/ex9G+JHTYr19dNfNeGLtsRUR7hMKfV369u35U5CACEEQEOPkKyvZ709/PrcZSOqUA0I6QBARHR0Sr+vOJc+QlmUTa0Juz5lwEOnm439qq+vnrPL+K/6ShrtYeIUQ3SpAW9sCLDvDah1RwQBcLBLcaoqM1oGZc+4YxoRw04CyggARESqHSufIs4PoTRK3zFYXFTrTjta6Df909F+4kldJ301gmtUO4iT5krD7GYIcHVIgNAbAM6ZRfm3IpUuNXfOndtQDVBcADiYqbcUntjSl4gfRXmUjXFikbFJi9rN2vtdcsZzUV458p+Y+TdZEFYTcVazPa4OAfLFEOCpIQGcFwBOGK3y7Kyw3QMK9EMqUQ1QxGe8s1+0G/NpjLr11b8xxjqhTCBL/EJ51v6h59995LCn9r0uk79+nTP2usPdstZZ/peyKmNu7tU23zDBhb0fVwkojSRxa7nZfNOFuSM3Ke1vx1UAylXzKgA7J5Y8VF55dl1Pzjm6woAEFUuL7dDzYEv9ln9Qo4cEOOsy+evFjhv/S0fkl4/UPTgkUO95AegNUBqLJB3Mk+RUJTb+APUf7mTo1Z3uGPk5MdW9KBcQEVnNppXGbcseyl2zzO2zozMy9Oq83l2+4oJw5+Xdz+mRuP3vWc1eAFd6A2o8uLu9ARDKjKL8zhnt8LGkZ7JSazAUPQCKVWV1+WNPL3Scf9e/GFM/g7IBEZEsSTnFJ/cMK/z3Ey6fK9JuzGKtRpe2jjN2Xc0GnNXTHc8QAsBjOOdihcl6d+7cu9YovRYIAMoOAC525erloy9e8xy3WN5E2YCISFCpmiV26HOwuX7jY640nR0fnxWtDk/dzRldd7lb3nZ+/zq74+2HBOjKfV0ZEqgxJuDukACEEqvMj5dJLB2NP4B7Y7n86KSer8kW02MoG1w8YGaqyNjkD9rM2PUJZTymc3a71mMXpgpJrY4Qp2615vO/fIY/r+MMfdtG2+Zn3O6fS0HAwdf1XiUAocAi8g9OanZ3uTDjtgJUA6CBnZ5t3/7tLk145Nfk5evDIXhIspxVeHTHkJJlT2fb/rzDs++2UUUl7eXE42rueQ665TEkAF4gc+IVRuvD5+fduRzVqAlDAMplsDSwAT85pe+3oqF0IDHCqlhAREQqQWiT3GlAVrOp6x+sbjq7PrfsGiEy7iDnYpzDZXztl/jFkAB4mMj52SJDZXM0/gAe6gGo1k6/vos6Nu03IopCKaGa0VD1njb/4C+CRruciISaB9xC7d3OaW8ArhKAhjNbpeWndFGPkX6IiGqgBwBq9wA0+mOt6cQfmkWntdhDjFJRUrhy6GUmKjxDJBqpVpe+WyGACEMC4A6ZEzeapCfOzh3xAaqBAABeDABERC0mL4+PSO22k3OhA8oKl3FOVHaeqDL/UiPtqHFldbTFzPntHIWAWvd3Y/ZA+8DhLJxg9sCAJklUUGoyDSqcf/cxVKN+QzLLC4gQAJTIjcsA65Y988GS8sM7enCi31BWqNFwxqUTJbS82BjbjvtfHmu3G2jndgHi8ri8swF5XvP/Gve/dF+X1xJwcF5AjZ8T1hIIYBYrX6MNa9kMjT+Aazx2Fn/usqerNDu+Gkxc/gllhRoi4olS2xNpdFTjZD9njTt30CjXGwJs/tnfjLszjbCzSwV5PW0+QoC/cE5ksIj/PDVz+B0H9V0tqAiAjwMA0cWVBI9WfDOcZBFjb1CTWkeU0p4oMrFmCKjRuDs50q4VAlzoDeAOegPcCQGcOw4B9r0BDoMI+IrMeXGlUeqcM+uOJagGgHu8NXjJOsze9zZTh01GiaGWqhKi0hwi+VKjfPmEPRfPC7h82wacF2D7PC6tLOjsBEFWzzsJ5wV4m0WU11lNVXfmLBhtRDUaBucAKPhj2OrlT6n2s/ePFdSahSg11GI1EhWdIRJN5PgEwcaGgOo7IQSEGs6JTFZpUvasEXMIXS4IANDgAODVmfyOT+yxSLJU3UeX13IFuEQTTpTagSgijpwPCdh+6lMDhwQ8dF4AhgQCgiRTZblR7JM9a8RsFBegcbw+le+JyX1WiMbSYURkRbmh1lF4Qiui+OYXj6ZrXSXAyekJgpfXAHDjKgFH5wXgKoGgYbXK2yvMqrQL8+7YjWoAeOAj2FdP1Eq/8RptTPI2ThSBskMtFgNRcfbFCYTshwRsu/Iv/8hBV7ztxD1uzx4ouP6WYE6+qXfiIAwJNHj3ECX96Zm3TyNiSFMelIEhAMXy+hCArdP6Ib9b8853JqJClB5qCYu8OCSgi6NaQwIOewJ47fn/653H39GQQD3zEtTVqWD/Tb1rCWBIwF0ycVOFkV9/euaIN9D4A3iWT1fzy5p1Y3bluVOdGaPTKD3UPrJWESW1IoptevFo2dGCQY6CgG0gsG2E6+yOt19QiLsfAriTht2lIAL1EUV5b3EZSz0/b/gWVAMgyAMAEVHuvBGFRedPdifif6L84FB0MlFyGyJBQ7VWCawrBLjcG2D3OLYNeY1zChrZG1DngT9CQF3MFmlOlm5Pn+Ilt5WjGgBeOuby1xN3HbUizNqv83fE2I3YDOCQLBIVZROZy8ml8wKIai8C5NJ5AZf+98t5AX59GwYczrlYabLefn7eXWtRDe/DOQDK5dNzAOwdzBxtObbz8K0k8y+xKcAhQX2xJyA2/crRfUOGBOo86PbykEC95wWgN6CaKMkH86oMqWj8AXz0EevXZ88cLR0bf9X/yZL4DjYFOBWdQpTcloipqUFDAi6dF4AhAX8yS9K/srTDu5cvGF2MHR5ACQGAiIgYPzHhmjHcap6IzQFOaaOI0toTaSMpqK8SqLPNV14IkGUuVVqkkWdmjPgH6RkmDAPwZesbSC+m3du7H2Za3cfYLFCn8gtE5flXGsx61xKwnzPA0bi/o7eF7ZwB9ucWuPjWcTaNMAkB+i70HVHix6tEy6C8uXfnY6f2j4wVOAdAqarEgOgBuOLElN6fcFPVLUQkYvOAUzFpRMmtiFTq2kf4DqcRtr9KwO5I36UhAX6l58H2X729AU6WF6b6hgRCm0WUPzili+yCxh8APQA1tJ22tZcQGfcrEemwicApyXpxQSGLwcGRvkAuzR7oTm9ArasE3OgNcKUnQAG9AZyIm6zywzmzRyzHDoweAEAPQC0nX7tur7GisBsR4RpgcE6lIUppd/Ekweqj7brWErA/L4DXWGHIzasEqPY5BvX1BDhcS0Cu3RsQokRZzq2qlFuh8QcIDEKgvrAc/ZATlqJznRhj57GZoE6xTS7OICio7BpmDAkECrNV/vJUUW6r3EUjsrHDAvgfJx64AYCI6Mzbt5yXT/3eiYgOY3NBnXSxRCkdiNThDhp5V0IAUZ3LBzv9fQN7A+oLASHSG8CJuMEsP549e8T9tOxprAgKgB4A151Y8lC5MedwL060HZsL6qQOu7igUFRyHSEgUIcEbENAaAwJSDIVlBrNnXLnjvgAOycAAkCD5CwYbYw9uj2DuPwdNhnUiRFRXDpRQouLJwLWOi+AyDNDArYNv03vQIOHBDiF0pCAWaQ1QiVrXjj/7mPYKQEC9+MyeOj1QtvIu95lguppbDqol9VEVHyGyGKkWmsJMAfZ19FVArZXE7g8j7/dvASNuUrA/r4s8N/CJqt1bM7suxZjBwx81+MqAMWqEnlQXnTE2s7a+yZTh03FJoT6j7BlopJzRIYi10JAjcbfwQRD3gwBNW5X1yWMgZnlJZmXGS3igAvz7jqEHQ8BAAI/AAhB+Lr5yUm9XuFWy1PYhFB/gyoQJTQnSmhJJDgbErDfwxwsKFR9DoHL8/jbLCjE5cYPCdQYpqCAm0bYKvP1VlNVEzT+AEH08RjML77tjN9GsrCIr4iCMsiAz1spE1HhaSLRRBgS8ByTWZqcM/eO2YRlDdEDAOgB8JWTL/ddKRmLhxARLi+C+ml0RGkdiCLiqNaCQo56A5wuKFTfpYJOfnZ5RcJGXCVg35PgdM4C75NlXllpkvrkzL1jFhp/gOAT9EfOp165fotYUdidiCqwOaH+I2uBKLHVxWEBxjAk0ECixH+r0EY2uTDvjt3YqQAQAPzmtH7IEWPF2S6cExYWAddEJl6cRlgTVrM34HLj7qwhdtQb4M6ReAN7Axw17Pb39UEI4JzIZJX1p2cO71+gH1KJHQkgOHEeQmPn5/S35ZiKjncholPYtOCSsAii1I5E4XEUFEMCzkKAj4YEZE6mcrN4fc7sEW8QMXT5AwS5kFt7LP2ppRHhHfpvImK9sXnBZRUFRGW5td8ZtpcAOnvr1Lhs0NkJgnaX99muLHj55MCGvG2dnMjo4UsFJS7vK9eqhhTrb8MCXSFkME4CVKwqKw+9s+dzlz1dpfvtm0FE8lpsYnBZdDJRclsiQVPzaN7ZgkKOuuK5/YJBjo7E7X9ve16AqwfrznoD6ps9sGEH7WZRnnNau7c3Gn8A9AAEh1ErVG36dPyYMeEBbGZwGZeIik4TmSqo1sQ/tpcAOnob2U8gVO/EQaxmT4DtUTxz9+1bxyWNDewN4JyLRot4+/l5dyFMowcA0AMQRDJHS1kTrn6ISdZZ2NTgeiRWESW1JYpNr30k7WhBIdsj61prALi7oBC3OS/A1Z4AB1cJ2J/I6PK5CVeIMh01WXgTNP4AoSvUJ9DhJyb1nMxF80vY1OCW6JRLQwJqatCQgO3qgk674wNzSECU+btnThq65s4bUYgdASCEj3eU8oe2mbH3QaYJ+0RJfzN4gGy9OCRgNlDoDglc/IEsc8kg83vzZ4/4FhteGTAEoFyhPQRgJ+vlXsvJWD6MiERsenCZoCFKbk8Uk1b7SNrrQwLkoyEBTrIsn6gSNelo/AEU9PGmpD/25KsDfxHLivsQkRGbHtwSk0aU1IpIUJHvhgTsZw8krwwJmEW+/JQuqnPe3JsxkRaAgiiyO7zF5O/aqJNb7iVOcdgFwC3ipSEBSyU5XlCojsV6Lt/W1eWFHQ0J2A8r1PXurntIgHPOTVbrw+fn3b0cG1aZrvsSQwBKZRS5MlfRy555e1ZV4eEORHQGuwG4Ra0hSm1PFJ1Kl2cPdDQroIMj7Su3la/80u0hAbv/6+wI4I7XEuAySbKUW2o0tkLjD6Bcil1G98KM0QWlZw50J+IHsRuA2+LSiZJaXxoSIAdrCdQxT//lEFDfgkLOhgS4g/ML6gkCNo9rFaUVZ7L2ty5ZNDobGxJAmbiSAwARUfGSh8rlv/ZeS1zeit0B3BYeR5TSgUgdTo7XEqgvBNCVEFBnb4D97xvWG8A5caPZ+uzZuSPvp0y9BRsQAD0Ainb6w7+ZsnYdHcJIzsTuAG7TaInSOhBFpdQRAvw/JCDJVFheYuhyfsG9/yFvrxUMAAgAQSNztHSycuX9XBLfRTHAbYwRxTclSmh58QS7WucFEHlmSMC24bdJE/UMCVhFvvbM6awWRcseOIKNBQCXP7pQgpr1aDVzz6uCWvsGSgENYjVdvErAaqTGXSXA6niHunaVAOdEFqv5xXML7luIo35wBFcBKFeVUq8CqAM/PfnaaVy0PIxSQINodESpHYgiE6lBQwJE5Np5AUR1DQnIslRWVVXS/dyC+xag8QcA9AC4ofWbO+4gXdRKwjAJNDhiFxOVnCWSea2jc4dvvxq9Bax2rwGr52186T9JkjeaC86MyPtkggEbAeoyCD0AimVED4Bzp17tv1o0lPUlIhOqAQ0SkXDpKgFtzd4A21kBaxzY89pf215N4PQ4/srvzWbzG9nzDw1D4w8A6AFopGav/NxeE9tkLxFFoxrQIFwmKj5DVFVKtc8LYI7fhva9Bazu2QNliVcZqyqG5S99YgcKDugBAPQAeEDOWzcdl0vOdSSiC6gGNCxmC0SJrYkSml9s0LldbwDV0Rtw+ex+mwmG7G4uWq17y04daorGHwDcgQDggjNv33JeKvqjC+f8JKoBDRaZRJTSjkgTRp4aErCYjNPPLlrZt/RbfSkKDAAIAF6QPfPBEvH8kW6c852oBjRYWCRRaseLswjWukrASQiwn+yHyyTLkrmytOjWc+888gpRpoTCAgACgBflLBhtPH1ix2CSxe9RDWgwprq4jkBcMyJyf0hAkqTfi08faFrwv2d+QjEBoCEUvxZAgyx72nrKuOoOLosfoRjQKNHJRCltiFQacnVIwGI2vZv96/w+FStnFKGAANCoYxGUoOG1az1z71tcpZmCUkCjyNLF2QNN5eR89kBurSwvvrfw/TFrCBP7gIcM/AJXASiVUcJVAI3BT03uNZWbzWNQCmgUQUWU3PbSkADVWktAksQTFecOtS58f8xqNP4A4LGPHpSgcc680vsdbjXcgw9maLTo5ItXCQhXhgQsJtP/zv6ypmtR5vRzKBAAIAAEWgiY0v8bMlYOISIrqgGNoo0iSutAXBMlVRQXP5q79O9/p4OZFhQGADxNjRJ4yPm/iBJbEcWmoRbQOCoN8dT2ROoY1AIA0AMQyFo+997dpNFtpPLzGirJQUGg8W9MRqropNSP0t/87T3qOioMFQEABIBAa/z/+eHzTKP7mhi7OEl7ZQFR4RkUBjwiTBf+RPOHph5MePC9ZqgGACAABAbW8h8fv8UEzTuXF2qpXtjFWEyUf7LmLG8ADaRSC+2ir+6blfjy2rsIl+4CgKcaMZSgAfR6oVVx2/c5Ex6t8XMuX/r/0iQumohLZ3WrUDPwCIvJ8J/zX84fixMDwRMGYB4AxTJhHoAGeOopTcuy9qu4oHq0dpyy6wmwVhHlHyOScXEAeEaYLvKZZg+9vCtq1OJkVAMAGgMBwA2tHvtA1ypyyBbi7PYrDX19IcBMdOEYkdWIAoJHqFTqqxOuvf5s/Ivf345qAEBDcI4A4EbjvyCOJ0T8xZnQr+ZUrfWFACKSrET5J4gsBhQSPIIxpo1Ja74mXb9tJmVk4HJeAEAPgDe0HvteKk9sdoiItb04V7twsXGvbuBdCQGyRFRw8tJ87wCeoYmInpR+49zfoke+nYhqAAACgAc1H/NhW1kVe5w4b2LTutdu4OsLAYwRyTJRYRaRoRiFBc+FAE1Yz7i+w7OTx64ajGoAAAKAB7R84ZOegibyLyKKdtC6uxcCqn/Piag4m6giHwUGz72RBRYR3rT15uTXt71JhCEBAEAAaETj//lwEsJ3EzGd86slGxgCiIhKzxGVYH0X8BxGRBGR0a80fXve+vhRk2JREQCo7zMD7Bv/8Sse4FxYfnFFtuqfXrq23171j2rMAUAOJgHiV25je8fweKKkltgU4FGc87Lys8eHlb1z7x5UA5wZ8EV5Acc8AIpkEjEPgIPG/6upnNTLrxzh22Yl5jxCOeoJqNEbUH3yoFDzjsYSovxTduEAoJHJnrHY2BYddqe8umUioacPABzAB8OVYybWfPzKJZxUb9Vo0B2GAOZaCLD/uvqG9iHAXEaUd5xIFrEZwKN00XGzmry1ey3dMTEa1QAAR02Xso1aoWrRSrOcON1nEwgu/SfbfW/ztf2QgO23XK45DFBjSMDJY2t0RMntiVQ4hws8S+assDLn4LDSJfcfQDWgGoYAlAtDAETUVb8irEUL9S81G3+bo337o3VW45DfeZyqnivAaU+Ag8e2mojyjl2cPRDAgwTGk6Kbd9mfPGXjWELPHwAo/YMgdfzHkRWVmr3EWB3XT3srBDh5bMl8cf0AM2YNBM9iRCw8LnFhkzd3ZVKvpyJQEQAEAEVqNm5FgpbFHCTGrnLto7P6BL4GhgCnlwk6CAGyeHHqYFMF9lDwOI1Wd3f6vc+djP77Rx1QDQAEAEVJn7SmhaDWniSilo4bZSchoLpBb0gIsH2eekMAIyL54tTBhhLspeBxapWQFte+x5HkKZsfJ5wLBKBIinvjNx//3VUkyLuIy+FXfursZD0Halznz+3u7mCuANvfOTyh0O7GtpcDVj9XXFOi6BTsreAVVpMx88JPcx+lHZlYslJh+n1eXkA4CVCRzJLCTgJsPuG760iQ9xNReI3Z+aie1f1qRCbbo/jqk/nI7ujd0UM7O5fAWU+AzXOV5lycORDACzS68FHN7pjyV/wjS1ugGgDKoZgA0HzymvtIkDcToyvX2HkkBJBrIYA1JgQwooq8i2sIAHgBE1RtIrv2Pxk/af39hCEBAASAUNFi4pp/EudfXP5gczQ+7+0QQPWEAOYgBNQ4d4ARGQovriZY3zAFQENCAJE6KiHl8yZv7lxKXUeFoSIACADBfeQ/8bu3OKNFLp2k55UQwFwLAeQgBNi+tuoQYCwlKjxBxCXsveAV6rCIv6c/MPWv8Ef+3RTVAAjp0B+i9HqhhbHnR5zYQzV/wev8ttaJekRunhhoc996Zw20nRGQO3lNdrMGVp98qIkgSm5DpMKBGngH52Q1FueMLpp92ypyuBIWBDucBKhcoXsSoH6jurmx13e1G3+qfVRe64o8ofbtGtITYHu07+iJmP1Rfl09Aax2T4C1iij/+MWJgwC8cXTASBOR2Gxlsn77AurVS4OKAISWkAsArfQf6JobK38loltd7vyw76l3NCTgSgiosQKgJ0MAOQ4BooXowjEiK67eAu/RhUeNTb/nvV1RoxYnoxoAIRTyQ+mPaTNpXayVm/Zz4q0b/CD2C/rY/8KVE/A4dzyU4PBJqPZcAbyu4Qdee8hBEIiS2hDpsOAbeA+Xubniwtk7yxfdvhbVCA0YAlCukBoCSJ7wfZqFm441qvEnD/QEXO4NEGof1TvLXfZzBdQ7dbDd72SZKP8kUVUp9mrw3tGCwLQx6S1+Sn7t17eJMrBkJQB6APyv2eRV7Uhm+4jIc4fA9fUEuNIbwJ2c5OdqT0CNx6ijJ8D29wnNiaIQ6MG7RNG617Bn7c0VK6cUoRroAYDgExLLATcdv6Y/ycIhjzb+rvQEuNIbwJyM77vaE1DjMeroCbD9ffFZotLz2LvBq9RqTa+YvsPPxI/77jpUAyA4BXUAaDFh9e1M4L8Sce+coeyVEMDqDwGskSGg/DxRSTbhyi3wJsZYZGRaiy1Jr/76GtEoFSoCgADgE80nrvmbzGiN1/8Gj4cAqj8EUD0hoMbzMQfnDDCiikKiwjMIAeB1uqiYN9LenLiebtXHoBoACABe1Wzimtc58fd9d6jjqxDAXAsBtZ6POegpYERVxUR5J+zOYQDwPHWYNiN98Mjs2GdX9EI1ABAAvICzphNX/4uI633+1PYhwOFUvo0NAeT5EGCuIMo7RiSL2NvBux8mAouNatlxT9KULROIlLXSKEAwCp6rAFasUDXdrf2GiN3hh+Dh8MuLHBxdu3V1gM2Dujx1MHdhrgDbx+ZEah1RSnsiFSZ0A+8TrZYf8rZ+OZp+nmtANQJX389wFYBSBc08AF31B8Oa7tZt9k/jb3+UX+u4x/mRfl09AczZ0sCuzBrI6ugJsOsxqB5aEM2YNRB8Rq0Ju63JkIdPxT39ydWoBkBgCvgAkDp+bWSJ4eR+Ihro31dSx9TBDQkBlxtyX4UAIpItF88JsOCgDHzw4cIoOaJN9/1JU7c8QxgSAEAAcEfamBXJGsF8jBF1CYxXVMeSwo0NAbZzBbgUAljt9QdcCQFcJMo/QWQqx94P3n/HcGLa6Nh/J7+xawX1HxeOigAgANTf+E9e2Uqt053gnNID7CPNOyGAyM0QQORwWmBXhgO4TFRwkqiyGO8A8IkwrfaetBEPn4z++0cdUA0A/+OBGgCajV/VXSWpDnOiAL2uuAEhoCGzBtoe7XssBNjcueQMUUU+3gngEypB1SS63TVHEib/8jiF2EJkAOgB8ICm41cP5YztJSJdYJfOzRDgSm+Ao1kDbRt6b4SA0hyiknN4J4Bv3jWcWHhc4v9S9Ds/plvHaFERAAQAIiJKn/Td/cRoAxEFyUpj3g4B5FoIYI0JAYyoMo+o8DTeDeAzGl34Q2mD/nYw/G//ao5qAAREC+bHI/+XVo/jAs0PzjJy5982eiVBm3kBbFcLdDTF7+W5AuTaz+Ho+WqsOMiJdLFEya3tQgKAF985nERD6YWHy2fd/CVh3mqf64N5ABQrQOYB4KzphFULg7fxr6cnoNGzBrI6egKcXSFQ36yBVLOXoXrWQFMZ0YXjRLKEdwf45p3DSB0Vn/Z5in77f6jrqDBUBEApPQB6vZBu6PEpEfu/EDmeqfNbh70BDekJqHG07+x5q38mu98ToAm/NGugGu8Q8BlJlA5Xntgx1PDh8xdQDfQAQCj3AOg3qtMNPX8Mncafah+VMydH3La/dHnWQLtLAl2dMIgE93sCrEaivKNEVjPeJeAzKrWqc2zHQdlxL/1wF+EqAQCv80sASH9qTUR6ZcVeIropNMtax6yBDQkBtkHAVyFAtBDlHyUyYdZA8OlbRxOR3HRl0uvb51OvXli4AiCUAkAr/cY4Hs0PEqPuof5J5vTbxoYAxsjtWQOrQwBjLoYAIpIkooITRMYKvFPAp8LCI19IuWvpb9H/Nxfd0wChEABaTvmpicVQcZwJ1EophzNeCQG2R+ouhQAihycH1hcC2KVZAwtPEhlK8G4Bn1JrND2iug3LiR33w02oBkAQB4C0cau7Wq2WE6S4E04aEALcukLAzVkD3QkB1b/nnKjoNFE5Zg0EH797BKaNTG26NvG1bW8RZeCsVADvtU7ekT5h1UDitJETYUyvmifnCqi+7r/WXAHOnpPbnfnv6Ll4zddVfYVATBpRXFNsP/A5SbTutJzcemvph+NKUQ3P6P1ZGa4CUCiz5IMegCbj14zknLag8Sf3egKcHZ076gkgZ7MGOnjOy7MG1tcTwGr3BBAjKr9AVHQG2w98TqXW9NN1GJITPebb61ANgMbzagBIm/Dt80TyN4S1wAMnBFA9IaDG87GaExlVhwBDIVFBVv09FACefsswFhmV3npL4qtbXyEapUJFAAIwAKSPXzONcfYOShxkIaDW89mtTVAdAowlRAXHiThmDQTfC4uIeTN52sR1dKs+BtUACJQAwDlr8tK373GSX0V5GxgCGjN1sH0IYC6GACa4HwJMFUR5x4gkK7Yh+JxaEzYkddDIU3HPrbgG1QDwdwDQb1SnT1q9hhh7EqVtRAio0Rtge6Z/A0IAuRgCLoePukIAqx0CLFVE+ceIRMwaCH74ABMoQde84/6EVza/RBhqBPBPAGg35gdtWmXFFi7TcJS1ESGgsXMFXB7H90YIIMchwGomunDs4hTCAH5422gj4+YmTdu9mm4aH4mKAPgwACRNXBVt0FoPMOL9UVIP9wY0asKghoQA1oAQQESy9eJwgAmzBoJ/aDRhw1MyHjoV+exn3VENAPeamgZJGbsqVQhjB0jmqShnY9VxVr3DlQRdeUhuc39XVxK89MXluQLsHqvGje3mEyBGlNSKKCIemxP89anGzWWlz5bMuP69KzsoOHLtcswDoFQWuZE9AM0mr2onqOkEGn8f5DGHPQEuRDhmewKfm7MGXj7Kr6MngOymDiZOYs7hpdxYej8+fMFPOZppY+L+k6DftZwyHtOhIACONTgANHlpZS/RSn8SURTK6McQQI0JAeTREMA5E82VJf9X+MGzz+ZNu/5LuaqoJxGZsE3BH8K02vuTh/3zmO7x99ugGgAeCgBpE769jZOwi4iQroM2BLD6QwBzPQTInJ8sP3mgTcknL35BlwYN8t8ceoCXne3KGJVim4I/qFSq5rHte52Im7zucfLR1OcAIRsAUsd/+wDJ7HvCJTdBHgKo/hBA9YSAS48nWawf5a9b0dX48/yz9nfPm3l7lnT+dCfG6By2KfjpncR0sSn/S9Tv/IhuHaNFRQAunrblViOe8uLKVxlny1G6UA8BzKUQwImLZmPFwwX/ffxvdOJHpxMB5C+6M896bE9nIvoT2xT8RaMNfzh5wGMHw59c3AzVAHA5AHCW+uKqJQITpqFkARYCHM4a2NgQQPWGAFmWs02FpzuVfPDcp+TC9QiF7z9RoTu6sg/J0lZsU/AXlVrdNrrN9VmxL629lzAkAAgA9dBzIe2lNZ8zRv9AufwZAlzpDbCdNbCBIYDVHwIkSc7MP/xLx7IvXz3pzl9x+kO96YJ19VDG5W+xTcFvH3qMNOFJaZnxr+94l7qOCkNFAIeXDnTVrwgrqgxbzznD8psBgzv88uL3juYKcGGyAM7t7kvO5grgkqXymcKlf3+PXJuFwFmqFNKm376QM80YbE/w67tJlg4ZTuy4wfDh8xeU+Pf3wjwAimWR6ggA6fo1EXK5tIcz1hmlCuAQYP+t10KAdN5Ufu66so8mnvTQH8HS3tqj54LmNWxP8PdnobHo7B3l825fiwAASgoADocAmo1bES5XSHvR+Acq5vzbxkwdXOOcArLp8resyduzp60HG38iIn7hlWtfJ9H4BLYn+FlYeGLznxJe2z6fevXSoByg0JaEiPQb1WkVZQc4sS4oj0J7Aq7cn0tm4zOFSx9rZJd/3VL1v95BYdHfEk7KAj8TRcvuoj+33kKZLxajBwAU1wOQWln6ARr/EO4JcHlJYSoxV5b0KFz62DJvNv5ERHn6Qat5RclAIrJim4I/qdVhvVOuHpoT9cIPQ1ENCHU1AkDKS2vuIi48hLKEcAio2cg7JMt8I5VkNy99/5kDvvor8mdk7JDLz3chRlhOEPz7jhJYeGRK0w0JU7e+SZShRkUg5FuP1PEfRxKPzSWiGJQlGLk5HEBUa0iAE3FRNI8rfufBxd4+6nem2bg1Ta0pLfcSxwJT4H9W0bKt+M8Nwylzclko/n0YAlAuuyGAmFfR+Cu3J4ATrzBXmnsXv/PgIn81/kREOQtGnDNl/9mZc/kktin4m0YdNjD5mlvOhY/5uh+qASHZaiRNXBUtiLyQiDApRoh3DFzpDeA2N5E307n82wsyn68MlJed/tTSCLlln00ysd7YiBAIzEbD5LK3Bs6hEFrmuid6ANADwKzyo2j8ldExYD9roCxZpxXEHRwaSI0/EVHusqerLpzZNZAR/x4bEQKBNjxyZuK0XevoVj16SiF0moeUF789TUQtUQ4l9QRIlZLFOrTo3ft3B/TrHjVKldZ98geyoHoYGxECgcRZkTnncEblf+7/Cz0AENQ9AEkvfN0Ejb9Col71Kn5c3meh8uYB3/gTEWVmShde7fUoieY52IgQCFSMJ0Y07/RnzKRNYwjLokMQE1SCajDKoKCjF8ZnFMT90bt04d9Kg+hl8/zX+07kVjPWDoCAoYuJW5yg37mabhofiWpAUAYATnQLyqAIJguXM4rmj5xCen1QnsRUoO/7DjdXjSY/XqUAYEut0Q1PHPxgVtSTX2DadAi+AEDEu6MMoY1z/qc5TJ1euuDuzcH+txRMG5DJqyoHE5GILQuBQMVYSnibTgdjJ29+ijCdNQRXABCaowyhS+a0oCD2wDVlM28vCZW/qWD6oF/JcL4XEZmxhSEQME5MGx27NP61ncsp4zEdKgJBsd8mv/itkYiww4Ye0Sqxe0oX3bk6VP/A+LFrWmhSWuzjxBOxuSFgQrcsZxvO7M0w/ffvpwL9tfb4FFcBKJVVvngGK5a/DDGc2BGj1ZIeyo0/EVHJohHZ6uLsTiRTDrY6BApBEFpEte59Mmr8+vsJQwIQyPsqEVWhDKHU+NN/C8+ar6pcMrpACX9v7rwRhXR+W2ci/ju2PgQKRsTC45M+j3t154d06xgtKgIBGQAYUQnKEAINPyeRS+zOwvl3/Z0yR0tK+tsL3n2+MvbC1n7EpY3YEyCQaHS6RxL7P/pHxONL0lENCMQegOMoQ7A3/vwMJ1WrwhDv8q/LiSX/NBccmHkj49Jy7BEQUB+yKnWH8DbXnQ6f8NM9hCEBCJyDRhI40U6UInjJsry8MDauXdGCEecUX4zMTCn/lTWPkGj9F/YMCKgQwEgTFZf2VcyrOxZSr1447woCAkt5YdVALvBfUYqgS29c5vKTxQvvfh/VqL1fJ7/x20RSa2eiFBBoJFE6ZD6ydajh8xfy/P1acBWAclkkIiGMmfdRCC1vqYzGn58XBak1Gn/nJSp4ve8sEg2PoxQQaFRqVRdd1+uzI1/6/kZUA/x6pERElDzumx85CZgSODga/2+L4qz3kX60BdWoX/IrW2/huujvCYu2QGC9k4mIyGqqnFf266uTadMmv8xsiR4AhfcAXNoV0VUaBJ8YssyfLFo4ciQaf9cVvHXdT+rKwn5EZEU1INBodFEvxWfM+ZVGzU9ANcDXBCKiwgUjtxDxLJQjYI8VSmQSuhUvGvk/VMN9F2YO262qzOlEjJehGhBoVGpV38TuGdmRz2fegGqAzwMAEeOMMSy1Gohk+qmopCS9eMEdB1GMhsubeXsWFWR1ZgK7gGpAoGGMIsPTWq+PGr/+VaJRKlQEfLLf2X6TNG7lFiJ2HcoSGCTOJ5UsHDmHsPytx8Q/tTRW1aLfTiLeCdUA/+G1v+YXz8W2Wsw7yvatGU7fz/T6JG04B0C5Lp8DcDkNmK2jiQjjy/7+aOBUKhF1L1k4cjYaf88qWfZ0me7Ahp6MyTtQDQhEGk1Y/4TeI89E/P3T3qgGeFONAFDw7ugLjNFIlMWvzf9WtTq8WcmCu/5ELbwjJ/NFY8GZ/1xPXFqNakBAfjALQnR4sw67osavm4ohAfCWWjtW1Y4vjof3v09ixIaiPL4lcT6leOFdTxq2t0MvjLft3StXXZ++IoLaNCWm6omCQACE/xrfMUakDtMN1Qy8tq9ZZqvo7H6Pfy40ufvliUQUgdorsb2pY17qhHHfvMY4ewNl8skb3ygTv7Fk4T3bUAufY0lv/PYaV2n1KAX4pbHnNc8BuPw98cs3k4kXmc/8flPVB0/v8+SruOYTnAOgVBa5jslRihfcPY0xYSLK5HW7uVSVhsbff5/Eha/3fYMspn+gFBCoBGKJ4S177I0a98M/CJNagcf2qzoULrhzjsDZ/YQT0bxlRlHcgX7FSx4qRyn8q2hav38xU8UI7OsQyLSxiUtipmxeTRmjolANaCyXlqZMemFlBidaR0RqlMwjzFaikeULR/6IUgSWhKkbBrDwxM3Y18G73BsCsL+fJIp5VSf3ZVg+H3OkMa8CQwDKVecQQI2egIUjN8ky70FERpSt0W/7P0Wdpgka/8BUPP2G7VSS142IqlANCFQqQUiNat/rUMTzK58lDAlAA7m845QsvvsvYur2jFEhytYwMqd/F5+z9iibeXsJqhG4iubdfIRdONOeEWYNhMDFiLHwhNR3Yyf+/Cn1HxWOioD7+5CbYp9dHq/SRuxjRK1QPpeP+kWZC/eULroT150Hkdhnl8ermnbZw4i1QTXA458Kl790fwiAZNvbcpIkMdt4fPsN5syXT7jzKjAEoFwuDwHYKvv3gyW6OHVXzvkfKKELR/1EWUKY0BKNf/Ap+/eDJZqj67sT8T2oBgQylUrVIrLjdccin//q0YYc2AF6ANyj36hOKC39nohuQhmdhvz/Fedan6bM0RKKEcSeWqpJaN77WyLhNhQDvNYDQO70AEg1egBsbycaKz8p//KNpylnR73nbF2NHgDFssqNTYp6vRBfes3HjPiDKGcNosjlR8sX3fMZShEiRo1SJXab9D5n6kdQDAjkAEDESRYtx8z7vh9m/Hn+WQQA8E4AuLizsYQXvp1PRC+gpEQk0xmmUg8sWjDiHIoRcliSfudsWaUbj1JAIAcA4kScS1ZT3qlHjP/725fkZH4LBABlBwAPXD7CePHCkeOIIQBwzjKLTc3bo/EP3U1cqO83QZBME1AKCPi0SqQJT2n1ecw/v11C7dppURFwsI94TsLYb+8jxj8n5Z2EwmXiT5YuvPt97FLKkPDa1lGkiV6BSkCg9gAQly4/lixaD5n3/niT8ZcF59ADAB7sAbiieNFdXwpEQ4lIVNBh/wVRljqi8VeW4mnXZTJj8bArn9oAgUtQq7to+4w4GfHo0uGoBlzeLzz9gIULR27iCpk1kBOtKo4XW5Yvvvc4diXlKXp76AZeee4aIjKhGhDwH/aMtLom7b6Leu7LRdS1axgqAl7rqo8fu6YFY+IBIooLxbZflmlc6eKRi7ALQfykNS1YdIv9xHkCqgEuHz5c/tL7QwCXb8A5EZdJMpt2i3+uGtHusXl/EYYAFMlDVwE4FzPupwSVbPydiJqHUN1KrLJ1UOWS0YewC0G11Gc+TrE27baPEzVFNcC9AHD5sKIRAYDXDgAkOw0AxDkxLhuade+vJSx8pUii7OVFJMoX3FIcHq/uRIz+DI23LP8l3KhuhsYf7OX955F81fntnRjnB1ANCIrPM8Yi0fgrm2/O1tdvVMcXl3xPjAXxrIF8csmiu2cT1ouHuoxZrI1PHvgjMWEIigGB3ANAxKl5t37YFAruAVD55Jk2fSSbbu38WbgprT0RdQuuiMQrZEk1qHTJyEzsMlCvXT9KJp6+PKJ1+y7EhC4oCDQoFNR7U96Ix7vy89jUZii7Qsnc59frcxY39tv5LEhmDeTEt2g1kbflzb3ZgN0F3N3XE/S7F3KV5p+oBaAHAAKxB0Dw7VMyXrpo5DjGaFzgpyM+vXThyAw0/tDQfb1Y3+cFQbK+jFoAQCAS/PGkxQtHLmQk3x+YwZybuChfX7b47leIMYz3Q6P2piJ9n5mCtQoLCAFAgDV1fgoARETFi+75kjMaQgE0ayDn8n5eXtak9F/3bMHuAZ5SNG3gJ2Qsu40wayAABBC/z9kfP+7bblyWfyOicD+noZllCX9MJb0eH9LgFYmT1/eWIhK3EZEG1VD88VfNQzGiK+cA2N6mMecAOJ0IiOMcACBRDpBFe+LHrmnByeqnWQOZWebCXeWL7/wJuwR4W+yEH9qy6LR9RCwG1UAAQAAAfwYAIRBeSMmiEdmSWtOeiJ318VvwTx6uaYLGH3ylbM5tJ9X5ZzsTY3moBgD4kxAoL6Ri3ojCuLLSDsTZZl88nyzT4rL4kdeUzby9BLsB+FLhO3fm0sn9nYgRFpECAL9hgfeSOIsd881TTGDveiWgcFZOsnhn6TujNmHzgz+lP7U0oqpp743EWB9UQ2kwBAD+FTBDAHaZhJctuWepKItpJNNqTx70EwnTShOsyWj8IRDkLnu6qvTc7kGM5B9RDQBAD4CdhDFfN5MEYQoj/hQ1bOriMpnoDa1VfK/g3dGV2OQQcEaNUsV1nbiMBPXjKAZ6ANADAL7qAWBB82qfWqqJDUu8mqmEEcTZ3cT4VQ7fVpxEJrBtsixlEtHP5YvvOUGECX0g8MN4/Os73+Yq7WSUAgEAAQAQAOqi1wvNyrpoy4nCuUXN1FGiWFIVZaIlt5mxaSFYxb267Z9cE7EIlVBwAHBpLQC5YQGA7NcC6I9NoVBSUAcAgFANAVO3juTaqG9QCQQABADwZgAQUAaAwFI6/bqVKkP5QAqgabIBIPQiKAIAQAAqnnX9dnXlue5EVIVqAIA3IAAABKii2bcfVl0404mIClENAEAAAFBST8C7d53lZ/Z2JKJTqAYAIAAAKEj5/54s1h1f340434tqAAACAICC5H0ywVD21+oBRPJ6VAMAPEGFEgAEiUObJHNSyWfa5P6tiYSrUZAQcfkKPV7z+zrvI9vcmdfzwHY/4lcuL4xJaY76K3i3Qw8AQDDJzJTK9b0fZbJ1LooBAI2BAAAQhOG97I0+E5hknIhSAAACAIDClE0bMIdZq0ahEgCAAACgtBDw1sCvmKFkGBHJqAYAIAAAKCkEzB66QSg7fy0RWVENAEAAAFCQ0vm37RfKc9sTYyWoBgDUh3MEAIDQCQHzhp+Rc//oxBg/h2oAQH2wHDBAiEl48NMYa4fOO4mEzqhGwB5/1TwUI3JzOWDJ5rZ1LQdsdz9utxxwdywHrFRYDhggBBUvf6i8onBbD4FLm1ANAHAGMwEChKJdP0pmSl+ubdnuKmLoCQi6XoF6b8ob8XhXfh6bipkAFbu34RwAgBC2SS9WsO9HCaJ1GYoBAPZwDgCAAt7nsVN3vCyH6aajFAF4tI9zAMAPcA4AgEJam7Lp/d8ms+HvKAUAVEMAAFCIircH/ZdVld1Gbg02AwACAAAEvfJZGT8yQ14/IhJRDQBlwzkAAAoUPXFVR4psvpdzikQ1/MHROQB2/9d1DgB39RwAbnc/23MAiFrgHADFwjkAAApVMfvOo1LJqfbEhAuoBoAyIQAAKFTVwnvOq0/t78yIjqEaAMrCiSMAAChZ6Yd/K43O3d2DEd+NagCgBwAAFCR32dNVFbl7BjIuf4dqACgHpgIGAKK938mWlJIV2uR+zYipeqAggQ5TAUPjyJgKGAAuy8yUKt7o+yQTrbNQDIDQhwAAADUODyve6juZW8wvohQAoQ3zAACAQ9Evb7lL1katRCW8krNsvnRnLYBLZE/MA8CpRfcB2BQKJXFcBQAATlTMGPwtM5UNISIZ1QAIPQgAAOBU5cwhm1jFhW7EyIhqACAAAICSQsC82w6FnTvRiRgVoRoACAAAoCAly0ZnC+eOdCKis6gGAAIAAChIxbIHCqNObuhMxPejGgAIAACgIHmfTDAYftvWn0jeiGoABC9OmAkQANx14kfJSunLtS3bdSEmdEFBPPmR7OpNMRMgNI5MmAcAABqORb62Yw5n2pdQikY09m7NA3DpB/bzANjfBvMAQD1EWTJhCAAAGtyKGab1n8BEy8soBUCwvXt5KQIAADQuBEzvN5OshidQCoDgIctSIQIAADRa1dvXvc8MxTcSZg0ECI7kbjJkIQAAgEcY5g5bT5XF/YhIRDUAAptkNp1BAAAAz/UEzBu2Wy481Y4RlaIaAIHLWF5yAAEAADzK9K97zvDzB7sQowuoBkDg4ZzIWpK7DwEAADzfE7Ds4fPa3N2diNNhVAMgsMic89ITmw9hHgAA8J5R88MjOg/+hTOhH4pR4xis5uEYUePmAagxMVBd8wAQ5gEAMlUZ9p55Pv1a9AAAgPdkvmis2vLddUwWV6IYAIGhqujch0RYCwAAvG2TXqxS/XAvkyzvoRgA/sWJU9XhbZlEmAoYAHyHRUzdrudq3WsoBYYAwD9MVZW/n3m+aQ/0AACAT1u9qukDXmeWqmdQCgD/MJw/9mr11wgAAOBTVTMGLSVjxT2oBIBvWa2WwsK33v0RAQAA/MY4+/pvyJA3gDBrIIDPVJzPGk+UKSEAAIB/Q8DcW3eoii9cTYwbUQ0Arx/95xRsnLTc9mdqlAUA/KVyyW2Hwsd83YESWu/nnJIUWQTu5H/7r129T/X33Nkdr/zjTp8AQk151u8P06ZNNXrc0AMAAP7tCVhyT07Y8Z0diPhJVAPAC++xipLVhTNv3GT/cwQAAPC7ss+eKzEdXnMNk+XfUQ0AzxElsfTsd/96wNHvEAAAIDBk6iuNR7/rS1z6GcUAaDzOiZcf3jmMfp5rcPR7FUoEAAHj0CZJTC39XJ3Yrx0xVTeFfVy79cne8Me78vPY1ObY50JY2bms5wumX7/a2e/RAwAAAdYTkCmZ3ur7EJPMs1EMgIapLMpbkv9qz3/XdRsEAAAIyMNh4/T+k5ilaiJKAeBm419a+N/c8R3H1nc7BAAACFjGmYPmkKXiIVQCwDWGkvxFuePaPUUujClhMSAACHi6ieuHcF38+tA5aHG0GJDd/15ZDIjXXAzoaiwGFDI48fLzp8fmTb1miat3QQ8AAAQ80+xhG9XlF3oRIwuqAVCTLIlFpYe39XSn8UcAAICgYVg4/HdWdK4TEZWhGgCXwnFl+TcnV73TomDO8N/dvS+GAAAgqEQ983GKNaXrfiJKD96/or4hAF7rZpd/IEt298UQgBJJFvFcadaB0cWzbtje0MdADwAABJXK/zySbz65rTMRP4RqgNLIklhUfvbEg1lPP9uyMY0/AgAABKfl/yw3797ek3H+S1D/HRyL8YBrRKuYZzif9eTJT+9Ny3vt2s9sl/VtKAwBAEDwytCrdQOHf8ZVwqgga/lrBwAMAYADFovlXNW5E+MKpg34mohkTz42lgMGgOC1SS+aNtH92ik3XyB12BgUpLq9l1CDIGc1m48b805NyHu93xpPN/zoAQCAUMLCJm+bSBrdzODtAZAb0QPg5DboAQjCht+4rzznyNiS6UO2kVsLRCAAAICC6SZu/ZusjXgfAQABINhYqqp2VZw78mLJjKHbvd3wIwAAQGiGgHHrh8lR8T8H9ucbAgBcaviN5T9Xnvj9xeIFdxz09XMjAABAyNH887teLLbJTgrY85zsr/2XnTTYdQQAp1MGIwAES8NvyNo1tmjevUf89RoQAAAgJGmfWtmWp7bYT0TRoRsAuOshAQEgIDa8qazoM9OfmyYWvv9Err9fDAIAAISsyCffSxXTeuznjDUJuMYfAUBJZGNp4SdlO1ZMqMycUhAoLwoBAABC21NLY8NSe+0kYp1CPwA4Wi0QAcBvrT7nVnNJ/jtVv618oyRzcsCtYYEAAAChb9T8cE3H69YzJgRAi+flAFA9CZDtbWyfDwHABw2/bDYV58/O3TJ/Jq1ZVhWorxMBAAAU0hPwlCYs+YmVXFAPD4oAwJ3ct1YA4I0IAAOxX3iy4ZfliqrC82/nrdIvoh2ZxkB/vSpsMgBQhL17ZemGZl9oxLZNuSD0DKwX58Zl3y6tH8Bd+l1sWgvsFx5p+MXSqnNZL+V8Ous+wydPbKGcQ2IwvG70AACA0rCwydvf4Brtq35t7J3OAYAegGAhidY844Uzr+T9Mv5D2rRJDLo3AjYhACiRZuKWf5A2confjvQbMgkQEQJAABAtlixj7tHx+dOuW01EQbvwAgIAACiWdvymEXJ49OqACADunADoSgCwfzwEgMYf8VtMxytzjo4vfOv678hLC/QgAAAA+Ih67I+DWEzKZiIS/BIAGnIFAAKAT1mMVXsrsv98sXTWzVvJR/P0IwAAAPhA2HPfdOaJLfcQUQQCAFQzV5burDr9x7ji+XfsDMW/DwEAAICIwp/8upnYpNXvRJTo9QDQ2BMAEQC8e8RvKP+58viel0oW3/1XKP+dCAAAANWe+G+Cpsk1ezix1j45+vdzAGh5DQJAjSP+8rK1FX9seK7s/cezlPD3IgAAANh6eE6kukXGZmJCL68HAC47CAUIAD7GzWVFnxX/+cPEqvfH5CrpD8dEQAAAtv5YZ5WjdB8JTbr3JcbaerntcfPmDoYQ3H7cK7+LU/BEQJxz2ViUt7R0839vKZh/93Lr/h8rlFYDBAAAAHsndklyWulnqvg+bUlQdfd6AHB0tF5XAHCjkUcAqNXwW4wl+YsrNy+5rWDR/31tPrTJqNTdHEMAAAB1fEaqJ2+fRWrtBI8e7TfkCgCieiYBunQ7V4YALn3d8hrlLAYky7LJWJg7+8K2xbMCeYEeBAAAgACinrj1JQqLmOuRxh8BwKckSa4w5WdPv7Bu4SLa9KEJezMCAACAW8ImbBola6NXeOzoHwHAuw2/aC0wXjgzJe/LWR/TwUwL9mAEAACAhvcEjN8wlHRx68jtWQN9cQkgAgARkWi1XqjKOzm14JfJHwfjAj0IAAAAAUoz5pur5biWu4hTWKMCQK1LAJ0d/bsaAGzu72oAuDp0AoBoMZ00nD8yoWhaxioKgXn6EQAAAAKQ7tnlbayJnfYRUaxbjb+jAFBv97+HA0D1c4dIABDNVUcrzv05oWT6zd+j4UcAAADwvr+9n6xq2n0/EWvq9tG/twLA5YcK/QBgMRr2VJ7966VQW6AHAQAAIBjcMSta3W3ods6Eq3wWAGqcL6C8AGA2lG2vPLZ7bNk79+7BDogAAADgP6PGhas7PPAzZ8IglwOAsymAHQYAR1cANDAAVN+fy8QYoxbd+gVNmY3lhWsrjmx5sXLp44ew0yEAAAAEhgy9WjXgli9I0NzjVgBw1oDXGwC48/tzyXGwsAsAak0YNe3cK7DryolMFQXfGvf/Mrbk46ezsaN5FqYCBgBorNObZL612VdsQKtEJqj71Nn4OzzMr2cI23b835VW04XbqLVaik5MC9R2XzaXF31WuPWTW4vn3fFf04HvyrCToQcAACCgP1OFCb++yrThb9QZADx+AqD7PQARsYmU3LJDQBVP5lyuKs5dat78ydSy72eWYHdCAAAACCqqlzY+yXXR73k3AFCjAkB8eiuKSW4SGEf8XLaYinLfMa9bPK1k/TIc7SMAAAAEcQj454+38eik7wM1ADRp353CIiL9e8QvyZVVBVlvF3yzbBHtxQI9CAAAAKHiH6uuFWLTdxCROpACwMUTAHv4r+G3WsuN+VnT83+cu4R2ZBqxoyAAAACEnqeXtxeSOu4jLkfVaPxdCgB2VwB4KADEN2lOMcnpvm/4RUu+6cLJV/JWPPkRHTyIBXoQAAAAQtwj/24qNO25jxhL8dwcAA0LAIwxatrpGlKpNT7780WL+bzh3OGpxW/pPyHCAj0IAAAASvLYgjihycDfiOQONRtoZw26dwJAfFpzn538J5pNJ6tyD00semvoKiKSsBMgAAAAKNMIfYSqy40buKDq59UA4GTOAY1WR03adyPGvPvRbzZUHqk8tXdc+YI71xLm6UcAAAAAIrr1Vq2q29SVXFDdWqOB9nIAEASB0tp2JY0u3IsNf8WequM7xpcuGb0FDT8CAAAA2Bs1SiW0fP49rtb+reEBgLsRABiltOhA4TFx3mn4K0u3V/2xYWzZ+09ggR4EAAAAqIcgjN84i6u14xsfAGxChF0AYIxRUtM2FBGX6NlXz4nM5QXfGvb/PKH80+dPYHMiAAAAgBufwerxv4yT1Lp5bs0BUCMMOA8AgkpFyc3bky4qxqMv2lhyfmX5rlUvGDMnY4EeBAAAAGiosBd/HiVpYz6XZVnlqQAQHh1HiemtSaXxzOV+nHPZWJL7nuHX5a8bVr+dh62GAAAAAB4Q/eL3HcTYpt+bjMZ2Nbr63QwAmrAwik1uQpExiR75hOdcthoLs98xbfrorfK1C4qxpRAAAADA024do026YexCi9X6tKGijMmS5FIAYIyRLjKaImMTKDI6jsgDl/lxWTYZ8s7MKvxpyTza9n4FNg4CAAAAeFns5PVtolp0/0iWpUHmqkqymE0kSVaSrFZijBETGKkENYVpw0mjCyddRBQJKpVHnlsWpUrDhawZRWumLaS9a7BADwIAAAD4Wpx+1+DIlBazNWG6vt5+LsliyTXmHptW+MX0D+nEj2ZUHwEAAAD8LHrsjx0jW3d6ISwi9gEmCB48pZ/L5vLin8xnDs0oWTRiOxHJqDYCAAAABJpRo1SxbZ+9Jiyp+b1hUTG3qNXa7kQkuHWkb7Wes1YUrbUWZH9Z/Ot7W7EcLwIAAAAEm15PaWIG3tSKRaW00ETGtGUqXXOmFrSMCTGcyYxbrIWyxXiOzMbz5tKzxyr3rcxCgw8AAACgYP8PMv2uLABuqOAAAAAldEVYdGRhdGU6Y3JlYXRlADIwMjEtMDgtMDRUMjI6MTU6NDYrMDA6MDCHKw2SAAAAJXRFWHRkYXRlOm1vZGlmeQAyMDIxLTA4LTA0VDIyOjE1OjQ2KzAwOjAw9na1LgAAAABJRU5ErkJggg==;fontSize=8;spacing=-2;fontColor=#000000;connectable=1;" parent="1" vertex="1">
                    <mxGeometry x="479.8" y="310" width="40" height="40" as="geometry"/>
                </mxCell>
                <mxCell id="TTFCyIRM2Td2Y5yZrBj4-10" value="CodeStar" style="sketch=0;points=[[0,0,0],[0.25,0,0],[0.5,0,0],[0.75,0,0],[1,0,0],[0,1,0],[0.25,1,0],[0.5,1,0],[0.75,1,0],[1,1,0],[0,0.25,0],[0,0.5,0],[0,0.75,0],[1,0.25,0],[1,0.5,0],[1,0.75,0]];outlineConnect=0;fontColor=#232F3E;gradientColor=#4D72F3;gradientDirection=north;fillColor=#3334B9;strokeColor=#ffffff;dashed=0;verticalLabelPosition=bottom;verticalAlign=top;align=center;html=1;fontSize=8;fontStyle=0;aspect=fixed;shape=mxgraph.aws4.resourceIcon;resIcon=mxgraph.aws4.codestar;spacing=-2;spacingTop=0;" parent="1" vertex="1">
                    <mxGeometry x="642.4" y="310" width="40" height="40" as="geometry"/>
                </mxCell>
                <mxCell id="TTFCyIRM2Td2Y5yZrBj4-11" value="Cloud9" style="sketch=0;points=[[0,0,0],[0.25,0,0],[0.5,0,0],[0.75,0,0],[1,0,0],[0,1,0],[0.25,1,0],[0.5,1,0],[0.75,1,0],[1,1,0],[0,0.25,0],[0,0.5,0],[0,0.75,0],[1,0.25,0],[1,0.5,0],[1,0.75,0]];outlineConnect=0;fontColor=#232F3E;gradientColor=#4D72F3;gradientDirection=north;fillColor=#3334B9;strokeColor=#ffffff;dashed=0;verticalLabelPosition=bottom;verticalAlign=top;align=center;html=1;fontSize=8;fontStyle=0;aspect=fixed;shape=mxgraph.aws4.resourceIcon;resIcon=mxgraph.aws4.cloud9;spacing=-2;spacingTop=0;" parent="1" vertex="1">
                    <mxGeometry x="642.4" y="250" width="40" height="40" as="geometry"/>
                </mxCell>
                <mxCell id="TTFCyIRM2Td2Y5yZrBj4-17" value="CodeBuild" style="sketch=0;points=[[0,0,0],[0.25,0,0],[0.5,0,0],[0.75,0,0],[1,0,0],[0,1,0],[0.25,1,0],[0.5,1,0],[0.75,1,0],[1,1,0],[0,0.25,0],[0,0.5,0],[0,0.75,0],[1,0.25,0],[1,0.5,0],[1,0.75,0]];outlineConnect=0;fontColor=#232F3E;gradientColor=#4D72F3;gradientDirection=north;fillColor=#3334B9;strokeColor=#ffffff;dashed=0;verticalLabelPosition=bottom;verticalAlign=top;align=center;html=1;fontSize=8;fontStyle=0;aspect=fixed;shape=mxgraph.aws4.resourceIcon;resIcon=mxgraph.aws4.codebuild;spacing=-2;spacingTop=0;shadow=0;" parent="1" vertex="1">
                    <mxGeometry x="702.4" y="310" width="40" height="40" as="geometry"/>
                </mxCell>
                <mxCell id="108" style="edgeStyle=orthogonalEdgeStyle;html=1;entryX=0.5;entryY=0;entryDx=0;entryDy=0;entryPerimeter=0;startArrow=classic;startFill=1;strokeColor=#545454;" parent="1" source="TTFCyIRM2Td2Y5yZrBj4-18" target="102" edge="1">
                    <mxGeometry relative="1" as="geometry"/>
                </mxCell>
                <mxCell id="TTFCyIRM2Td2Y5yZrBj4-18" value="CloudFormation" style="sketch=0;points=[[0,0,0],[0.25,0,0],[0.5,0,0],[0.75,0,0],[1,0,0],[0,1,0],[0.25,1,0],[0.5,1,0],[0.75,1,0],[1,1,0],[0,0.25,0],[0,0.5,0],[0,0.75,0],[1,0.25,0],[1,0.5,0],[1,0.75,0]];points=[[0,0,0],[0.25,0,0],[0.5,0,0],[0.75,0,0],[1,0,0],[0,1,0],[0.25,1,0],[0.5,1,0],[0.75,1,0],[1,1,0],[0,0.25,0],[0,0.5,0],[0,0.75,0],[1,0.25,0],[1,0.5,0],[1,0.75,0]];outlineConnect=0;fontColor=#232F3E;gradientColor=#F34482;gradientDirection=north;fillColor=#BC1356;strokeColor=#ffffff;dashed=0;verticalLabelPosition=bottom;verticalAlign=top;align=center;html=1;fontSize=8;fontStyle=0;aspect=fixed;shape=mxgraph.aws4.resourceIcon;resIcon=mxgraph.aws4.cloudformation;spacing=-2;spacingTop=0;" parent="1" vertex="1">
                    <mxGeometry x="702.4" y="250" width="40" height="40" as="geometry"/>
                </mxCell>
                <mxCell id="17" value="VPC" style="points=[[0,0],[0.25,0],[0.5,0],[0.75,0],[1,0],[1,0.25],[1,0.5],[1,0.75],[1,1],[0.75,1],[0.5,1],[0.25,1],[0,1],[0,0.75],[0,0.5],[0,0.25]];outlineConnect=0;gradientColor=none;html=1;whiteSpace=wrap;fontSize=12;fontStyle=0;container=1;pointerEvents=0;collapsible=0;recursiveResize=0;shape=mxgraph.aws4.group;grIcon=mxgraph.aws4.group_vpc;strokeColor=#248814;fillColor=none;verticalAlign=top;align=left;spacingLeft=30;fontColor=#248814;dashed=0;rounded=0;shadow=0;glass=0;labelBackgroundColor=none;sketch=0;" parent="1" vertex="1">
                    <mxGeometry x="960" y="370" width="220" height="330" as="geometry"/>
                </mxCell>
                <mxCell id="TTFCyIRM2Td2Y5yZrBj4-5" value="DynamoDB" style="sketch=0;points=[[0,0,0],[0.25,0,0],[0.5,0,0],[0.75,0,0],[1,0,0],[0,1,0],[0.25,1,0],[0.5,1,0],[0.75,1,0],[1,1,0],[0,0.25,0],[0,0.5,0],[0,0.75,0],[1,0.25,0],[1,0.5,0],[1,0.75,0]];outlineConnect=0;fontColor=#232F3E;gradientColor=#4D72F3;gradientDirection=north;fillColor=#3334B9;strokeColor=#ffffff;dashed=0;verticalLabelPosition=bottom;verticalAlign=top;align=center;html=1;fontSize=8;fontStyle=0;aspect=fixed;shape=mxgraph.aws4.resourceIcon;resIcon=mxgraph.aws4.dynamodb;shadow=0;spacing=-2;" parent="17" vertex="1">
                    <mxGeometry x="100" y="250" width="40" height="40" as="geometry"/>
                </mxCell>
                <mxCell id="78" style="edgeStyle=orthogonalEdgeStyle;jumpStyle=none;jumpSize=6;html=1;entryX=0.5;entryY=0;entryDx=0;entryDy=0;entryPerimeter=0;fontSize=8;fontColor=#000000;startArrow=classic;startFill=1;strokeColor=#545454;strokeWidth=1;" parent="17" source="56" target="TTFCyIRM2Td2Y5yZrBj4-5" edge="1">
                    <mxGeometry relative="1" as="geometry"/>
                </mxCell>
                <mxCell id="115" style="edgeStyle=orthogonalEdgeStyle;jumpStyle=none;html=1;entryX=0;entryY=0.5;entryDx=0;entryDy=0;entryPerimeter=0;fontSize=8;startArrow=classic;startFill=1;strokeColor=#545454;" parent="17" source="56" target="102" edge="1">
                    <mxGeometry relative="1" as="geometry"/>
                </mxCell>
                <mxCell id="56" value="" style="sketch=0;points=[[0,0,0],[0.25,0,0],[0.5,0,0],[0.75,0,0],[1,0,0],[0,1,0],[0.25,1,0],[0.5,1,0],[0.75,1,0],[1,1,0],[0,0.25,0],[0,0.5,0],[0,0.75,0],[1,0.25,0],[1,0.5,0],[1,0.75,0]];outlineConnect=0;fontColor=#232F3E;gradientColor=#F78E04;gradientDirection=north;fillColor=#D05C17;strokeColor=#ffffff;dashed=0;verticalLabelPosition=bottom;verticalAlign=top;align=center;html=1;fontSize=12;fontStyle=0;aspect=fixed;shape=mxgraph.aws4.resourceIcon;resIcon=mxgraph.aws4.lambda;rounded=0;shadow=0;glass=0;labelBackgroundColor=none;" parent="17" vertex="1">
                    <mxGeometry x="60" y="115" width="30" height="30" as="geometry"/>
                </mxCell>
                <mxCell id="79" style="edgeStyle=orthogonalEdgeStyle;jumpStyle=none;jumpSize=6;html=1;entryX=0.5;entryY=0;entryDx=0;entryDy=0;entryPerimeter=0;fontSize=8;fontColor=#000000;startArrow=classic;startFill=1;strokeColor=#545454;strokeWidth=1;" parent="17" source="57" target="TTFCyIRM2Td2Y5yZrBj4-5" edge="1">
                    <mxGeometry relative="1" as="geometry"/>
                </mxCell>
                <mxCell id="114" style="edgeStyle=orthogonalEdgeStyle;jumpStyle=none;html=1;entryX=0;entryY=0.5;entryDx=0;entryDy=0;entryPerimeter=0;fontSize=8;startArrow=classic;startFill=1;strokeColor=#545454;" parent="17" source="57" target="102" edge="1">
                    <mxGeometry relative="1" as="geometry">
                        <Array as="points">
                            <mxPoint x="120" y="85"/>
                            <mxPoint x="120" y="130"/>
                        </Array>
                    </mxGeometry>
                </mxCell>
                <mxCell id="57" value="Lambda PUT" style="sketch=0;points=[[0,0,0],[0.25,0,0],[0.5,0,0],[0.75,0,0],[1,0,0],[0,1,0],[0.25,1,0],[0.5,1,0],[0.75,1,0],[1,1,0],[0,0.25,0],[0,0.5,0],[0,0.75,0],[1,0.25,0],[1,0.5,0],[1,0.75,0]];outlineConnect=0;fontColor=#232F3E;gradientColor=#F78E04;gradientDirection=north;fillColor=#D05C17;strokeColor=#ffffff;dashed=0;verticalLabelPosition=bottom;verticalAlign=top;align=center;html=1;fontSize=8;fontStyle=0;aspect=fixed;shape=mxgraph.aws4.resourceIcon;resIcon=mxgraph.aws4.lambda;rounded=0;shadow=0;glass=0;labelBackgroundColor=none;spacing=-2;" parent="17" vertex="1">
                    <mxGeometry x="60" y="70" width="30" height="30" as="geometry"/>
                </mxCell>
                <mxCell id="80" style="edgeStyle=orthogonalEdgeStyle;jumpStyle=none;jumpSize=6;html=1;entryX=0.5;entryY=0;entryDx=0;entryDy=0;entryPerimeter=0;fontSize=8;fontColor=#000000;startArrow=classic;startFill=1;strokeColor=#545454;strokeWidth=1;" parent="17" source="58" target="TTFCyIRM2Td2Y5yZrBj4-5" edge="1">
                    <mxGeometry relative="1" as="geometry"/>
                </mxCell>
                <mxCell id="113" style="edgeStyle=orthogonalEdgeStyle;jumpStyle=none;html=1;exitX=1;exitY=0.5;exitDx=0;exitDy=0;exitPerimeter=0;entryX=0;entryY=0.5;entryDx=0;entryDy=0;entryPerimeter=0;fontSize=8;startArrow=classic;startFill=1;strokeColor=#545454;" parent="17" source="58" target="102" edge="1">
                    <mxGeometry relative="1" as="geometry">
                        <Array as="points">
                            <mxPoint x="120" y="40"/>
                            <mxPoint x="120" y="130"/>
                        </Array>
                    </mxGeometry>
                </mxCell>
                <mxCell id="58" value="Lambda GET" style="sketch=0;points=[[0,0,0],[0.25,0,0],[0.5,0,0],[0.75,0,0],[1,0,0],[0,1,0],[0.25,1,0],[0.5,1,0],[0.75,1,0],[1,1,0],[0,0.25,0],[0,0.5,0],[0,0.75,0],[1,0.25,0],[1,0.5,0],[1,0.75,0]];outlineConnect=0;fontColor=#232F3E;gradientColor=#F78E04;gradientDirection=north;fillColor=#D05C17;strokeColor=#ffffff;dashed=0;verticalLabelPosition=bottom;verticalAlign=top;align=center;html=1;fontSize=8;fontStyle=0;aspect=fixed;shape=mxgraph.aws4.resourceIcon;resIcon=mxgraph.aws4.lambda;rounded=0;shadow=0;glass=0;labelBackgroundColor=none;spacing=-2;" parent="17" vertex="1">
                    <mxGeometry x="60" y="25" width="30" height="30" as="geometry"/>
                </mxCell>
                <mxCell id="77" style="edgeStyle=orthogonalEdgeStyle;jumpStyle=none;jumpSize=6;html=1;entryX=0.5;entryY=0;entryDx=0;entryDy=0;entryPerimeter=0;fontSize=8;fontColor=#000000;startArrow=classic;startFill=1;strokeColor=#545454;strokeWidth=1;" parent="17" source="70" target="TTFCyIRM2Td2Y5yZrBj4-5" edge="1">
                    <mxGeometry relative="1" as="geometry"/>
                </mxCell>
                <mxCell id="116" style="edgeStyle=orthogonalEdgeStyle;jumpStyle=none;html=1;fontSize=8;startArrow=classic;startFill=1;strokeColor=#545454;" parent="17" source="70" edge="1">
                    <mxGeometry relative="1" as="geometry">
                        <mxPoint x="160" y="130" as="targetPoint"/>
                        <Array as="points">
                            <mxPoint x="120" y="190"/>
                            <mxPoint x="120" y="130"/>
                        </Array>
                    </mxGeometry>
                </mxCell>
                <mxCell id="70" value="Persistent&lt;br style=&quot;font-size: 8px;&quot;&gt;Profile" style="sketch=0;points=[[0,0,0],[0.25,0,0],[0.5,0,0],[0.75,0,0],[1,0,0],[0,1,0],[0.25,1,0],[0.5,1,0],[0.75,1,0],[1,1,0],[0,0.25,0],[0,0.5,0],[0,0.75,0],[1,0.25,0],[1,0.5,0],[1,0.75,0]];outlineConnect=0;fontColor=#232F3E;gradientColor=#F78E04;gradientDirection=north;fillColor=#D05C17;strokeColor=#ffffff;dashed=0;verticalLabelPosition=bottom;verticalAlign=top;align=center;html=1;fontSize=8;fontStyle=0;aspect=fixed;shape=mxgraph.aws4.resourceIcon;resIcon=mxgraph.aws4.lambda;rounded=0;shadow=0;glass=0;labelBackgroundColor=none;connectable=1;spacing=-2;" parent="17" vertex="1">
                    <mxGeometry x="60" y="175" width="30" height="30" as="geometry"/>
                </mxCell>
                <mxCell id="102" value="S3&lt;br&gt;" style="sketch=0;points=[[0,0,0],[0.25,0,0],[0.5,0,0],[0.75,0,0],[1,0,0],[0,1,0],[0.25,1,0],[0.5,1,0],[0.75,1,0],[1,1,0],[0,0.25,0],[0,0.5,0],[0,0.75,0],[1,0.25,0],[1,0.5,0],[1,0.75,0]];outlineConnect=0;fontColor=#000000;gradientColor=#60A337;gradientDirection=north;fillColor=#277116;strokeColor=#ffffff;dashed=0;verticalLabelPosition=bottom;verticalAlign=top;align=center;html=1;fontSize=8;fontStyle=0;aspect=fixed;shape=mxgraph.aws4.resourceIcon;resIcon=mxgraph.aws4.s3;rounded=0;shadow=0;glass=0;labelBackgroundColor=none;spacing=-2;" parent="17" vertex="1">
                    <mxGeometry x="160" y="110" width="40" height="40" as="geometry"/>
                </mxCell>
                <mxCell id="21" style="edgeStyle=orthogonalEdgeStyle;html=1;entryX=0;entryY=0.5;entryDx=0;entryDy=0;entryPerimeter=0;fontSize=8;fontColor=#000000;startArrow=classic;startFill=1;strokeColor=#545454;exitX=1;exitY=0.25;exitDx=0;exitDy=0;exitPerimeter=0;" parent="1" source="19" target="TTFCyIRM2Td2Y5yZrBj4-4" edge="1">
                    <mxGeometry relative="1" as="geometry"/>
                </mxCell>
                <mxCell id="32" style="edgeStyle=orthogonalEdgeStyle;html=1;exitX=1;exitY=0.75;exitDx=0;exitDy=0;exitPerimeter=0;entryX=0;entryY=0.5;entryDx=0;entryDy=0;entryPerimeter=0;fontSize=11;fontColor=#000000;startArrow=classic;startFill=1;strokeColor=#545454;" parent="1" source="19" target="23" edge="1">
                    <mxGeometry relative="1" as="geometry">
                        <Array as="points">
                            <mxPoint x="773" y="590"/>
                            <mxPoint x="773" y="660"/>
                        </Array>
                    </mxGeometry>
                </mxCell>
                <mxCell id="110" style="edgeStyle=orthogonalEdgeStyle;html=1;entryX=0;entryY=1;entryDx=0;entryDy=0;entryPerimeter=0;startArrow=classic;startFill=1;strokeColor=#545454;exitX=1;exitY=1;exitDx=0;exitDy=0;exitPerimeter=0;" parent="1" source="19" target="70" edge="1">
                    <mxGeometry relative="1" as="geometry">
                        <Array as="points">
                            <mxPoint x="740" y="600"/>
                            <mxPoint x="740" y="705"/>
                            <mxPoint x="945" y="705"/>
                            <mxPoint x="945" y="575"/>
                        </Array>
                    </mxGeometry>
                </mxCell>
                <mxCell id="19" value="S3 bucket&amp;nbsp;&lt;br style=&quot;font-size: 8px;&quot;&gt;Static Home Page" style="sketch=0;points=[[0,0,0],[0.25,0,0],[0.5,0,0],[0.75,0,0],[1,0,0],[0,1,0],[0.25,1,0],[0.5,1,0],[0.75,1,0],[1,1,0],[0,0.25,0],[0,0.5,0],[0,0.75,0],[1,0.25,0],[1,0.5,0],[1,0.75,0]];outlineConnect=0;fontColor=#000000;gradientColor=#60A337;gradientDirection=north;fillColor=#277116;strokeColor=#ffffff;dashed=0;verticalLabelPosition=bottom;verticalAlign=top;align=center;html=1;fontSize=8;fontStyle=0;aspect=fixed;shape=mxgraph.aws4.resourceIcon;resIcon=mxgraph.aws4.s3;rounded=0;shadow=0;glass=0;labelBackgroundColor=none;spacing=-2;" parent="1" vertex="1">
                    <mxGeometry x="680" y="560" width="40" height="40" as="geometry"/>
                </mxCell>
                <mxCell id="71" style="html=1;fontSize=8;fontColor=#000000;startArrow=classic;startFill=1;strokeColor=#545454;exitX=1;exitY=0.75;exitDx=0;exitDy=0;exitPerimeter=0;snapToPoint=0;edgeStyle=orthogonalEdgeStyle;entryX=0;entryY=0.75;entryDx=0;entryDy=0;entryPerimeter=0;" parent="1" source="23" target="70" edge="1">
                    <mxGeometry relative="1" as="geometry">
                        <mxPoint x="1000" y="573" as="targetPoint"/>
                        <Array as="points">
                            <mxPoint x="930" y="670"/>
                            <mxPoint x="930" y="568"/>
                            <mxPoint x="1020" y="568"/>
                        </Array>
                    </mxGeometry>
                </mxCell>
                <mxCell id="23" value="Cognito&lt;br style=&quot;font-size: 8px;&quot;&gt;User Credentials" style="sketch=0;points=[[0,0,0],[0.25,0,0],[0.5,0,0],[0.75,0,0],[1,0,0],[0,1,0],[0.25,1,0],[0.5,1,0],[0.75,1,0],[1,1,0],[0,0.25,0],[0,0.5,0],[0,0.75,0],[1,0.25,0],[1,0.5,0],[1,0.75,0]];outlineConnect=0;fontColor=#232F3E;gradientColor=#F54749;gradientDirection=north;fillColor=#C7131F;strokeColor=#ffffff;dashed=0;verticalLabelPosition=bottom;verticalAlign=top;align=center;html=1;fontSize=8;fontStyle=0;aspect=fixed;shape=mxgraph.aws4.resourceIcon;resIcon=mxgraph.aws4.cognito;rounded=0;shadow=0;glass=0;labelBackgroundColor=none;spacing=-2;" parent="1" vertex="1">
                    <mxGeometry x="798.73" y="640" width="40" height="40" as="geometry"/>
                </mxCell>
                <mxCell id="60" style="edgeStyle=orthogonalEdgeStyle;html=1;fontSize=8;fontColor=#000000;startArrow=classic;startFill=1;strokeColor=#545454;entryX=0;entryY=0.5;entryDx=0;entryDy=0;entryPerimeter=0;" parent="1" source="TTFCyIRM2Td2Y5yZrBj4-4" target="57" edge="1">
                    <mxGeometry relative="1" as="geometry"/>
                </mxCell>
                <mxCell id="TTFCyIRM2Td2Y5yZrBj4-4" value="API Gateway" style="sketch=0;points=[[0,0,0],[0.25,0,0],[0.5,0,0],[0.75,0,0],[1,0,0],[0,1,0],[0.25,1,0],[0.5,1,0],[0.75,1,0],[1,1,0],[0,0.25,0],[0,0.5,0],[0,0.75,0],[1,0.25,0],[1,0.5,0],[1,0.75,0]];outlineConnect=0;fontColor=#000000;gradientColor=#945DF2;gradientDirection=north;fillColor=#5A30B5;strokeColor=#ffffff;dashed=0;verticalLabelPosition=bottom;verticalAlign=top;align=center;html=1;fontSize=8;fontStyle=0;aspect=fixed;shape=mxgraph.aws4.resourceIcon;resIcon=mxgraph.aws4.api_gateway;spacing=-2;" parent="1" vertex="1">
                    <mxGeometry x="800" y="480" width="40" height="40" as="geometry"/>
                </mxCell>
                <mxCell id="94" value="" style="edgeStyle=orthogonalEdgeStyle;jumpStyle=none;jumpSize=6;html=1;fontSize=8;fontColor=#000000;startArrow=classic;startFill=1;strokeColor=#545454;strokeWidth=1;" parent="1" source="93" target="TTFCyIRM2Td2Y5yZrBj4-1" edge="1">
                    <mxGeometry relative="1" as="geometry"/>
                </mxCell>
                <mxCell id="96" style="edgeStyle=orthogonalEdgeStyle;jumpStyle=none;jumpSize=6;html=1;entryX=1;entryY=0.75;entryDx=0;entryDy=0;fontSize=8;fontColor=#000000;startArrow=classic;startFill=1;strokeColor=#545454;strokeWidth=1;" parent="1" source="93" target="TTFCyIRM2Td2Y5yZrBj4-9" edge="1">
                    <mxGeometry relative="1" as="geometry">
                        <Array as="points">
                            <mxPoint x="540" y="380"/>
                            <mxPoint x="540" y="340"/>
                        </Array>
                    </mxGeometry>
                </mxCell>
                <mxCell id="93" value="Security Key" style="sketch=0;outlineConnect=0;fontColor=#232F3E;gradientColor=none;fillColor=#BF0816;strokeColor=none;dashed=0;verticalLabelPosition=bottom;verticalAlign=top;align=center;html=1;fontSize=8;fontStyle=0;aspect=fixed;pointerEvents=1;shape=mxgraph.aws4.role;spacing=-2;" parent="1" vertex="1">
                    <mxGeometry x="800" y="368" width="42.55" height="24" as="geometry"/>
                </mxCell>
                <mxCell id="98" style="edgeStyle=orthogonalEdgeStyle;jumpStyle=none;jumpSize=6;html=1;entryX=1;entryY=0.5;entryDx=0;entryDy=0;entryPerimeter=0;fontSize=8;fontColor=#000000;startArrow=classic;startFill=1;strokeColor=#545454;strokeWidth=1;" parent="1" source="97" target="19" edge="1">
                    <mxGeometry relative="1" as="geometry"/>
                </mxCell>
                <mxCell id="99" style="edgeStyle=orthogonalEdgeStyle;jumpStyle=none;jumpSize=6;html=1;fontSize=8;fontColor=#000000;startArrow=classic;startFill=1;strokeColor=#545454;strokeWidth=1;exitX=0;exitY=0.25;exitDx=0;exitDy=0;exitPerimeter=0;entryX=0;entryY=0.75;entryDx=0;entryDy=0;entryPerimeter=0;" parent="1" source="97" target="TTFCyIRM2Td2Y5yZrBj4-4" edge="1">
                    <mxGeometry relative="1" as="geometry"/>
                </mxCell>
                <mxCell id="97" value="Containers&lt;br&gt;Interactive Web&amp;nbsp;" style="sketch=0;points=[[0,0,0],[0.25,0,0],[0.5,0,0],[0.75,0,0],[1,0,0],[0,1,0],[0.25,1,0],[0.5,1,0],[0.75,1,0],[1,1,0],[0,0.25,0],[0,0.5,0],[0,0.75,0],[1,0.25,0],[1,0.5,0],[1,0.75,0]];outlineConnect=0;fontColor=#232F3E;gradientColor=#F78E04;gradientDirection=north;fillColor=#D05C17;strokeColor=#ffffff;dashed=0;verticalLabelPosition=bottom;verticalAlign=top;align=center;html=1;fontSize=8;fontStyle=0;aspect=fixed;shape=mxgraph.aws4.resourceIcon;resIcon=mxgraph.aws4.eks;rounded=1;shadow=0;glass=0;labelBackgroundColor=none;spacing=-2;" parent="1" vertex="1">
                    <mxGeometry x="800" y="560" width="40" height="40" as="geometry"/>
                </mxCell>
                <mxCell id="100" style="edgeStyle=orthogonalEdgeStyle;jumpStyle=line;jumpSize=6;html=1;fontSize=8;fontColor=#000000;startArrow=classic;startFill=1;strokeColor=#545454;strokeWidth=1;exitX=0;exitY=0.5;exitDx=0;exitDy=0;exitPerimeter=0;" parent="1" source="70" target="97" edge="1">
                    <mxGeometry relative="1" as="geometry">
                        <Array as="points">
                            <mxPoint x="925" y="560"/>
                            <mxPoint x="925" y="580"/>
                        </Array>
                        <mxPoint x="1020" y="555" as="sourcePoint"/>
                    </mxGeometry>
                </mxCell>
                <mxCell id="33" style="edgeStyle=orthogonalEdgeStyle;html=1;fontSize=11;fontColor=#000000;startArrow=classic;startFill=1;strokeColor=#545454;entryX=1;entryY=0.75;entryDx=0;entryDy=0;entryPerimeter=0;jumpStyle=line;exitX=1;exitY=0.25;exitDx=0;exitDy=0;exitPerimeter=0;" parent="1" source="23" target="TTFCyIRM2Td2Y5yZrBj4-4" edge="1">
                    <mxGeometry relative="1" as="geometry">
                        <Array as="points">
                            <mxPoint x="860" y="650"/>
                            <mxPoint x="860" y="512"/>
                        </Array>
                    </mxGeometry>
                </mxCell>
                <mxCell id="105" style="edgeStyle=orthogonalEdgeStyle;html=1;entryX=0.5;entryY=0;entryDx=0;entryDy=0;entryPerimeter=0;strokeColor=#545454;jumpStyle=line;startArrow=classic;startFill=1;" parent="1" source="TTFCyIRM2Td2Y5yZrBj4-15" target="97" edge="1">
                    <mxGeometry relative="1" as="geometry">
                        <Array as="points">
                            <mxPoint x="487" y="540"/>
                            <mxPoint x="820" y="540"/>
                        </Array>
                    </mxGeometry>
                </mxCell>
                <mxCell id="76" style="edgeStyle=orthogonalEdgeStyle;jumpStyle=line;html=1;entryX=1;entryY=0.5;entryDx=0;entryDy=0;entryPerimeter=0;fontSize=8;fontColor=#000000;startArrow=classic;startFill=1;strokeColor=#545454;strokeWidth=1;jumpSize=6;" parent="1" target="23" edge="1">
                    <mxGeometry relative="1" as="geometry">
                        <mxPoint x="895" y="400" as="sourcePoint"/>
                        <Array as="points">
                            <mxPoint x="895" y="400"/>
                            <mxPoint x="895" y="660"/>
                        </Array>
                    </mxGeometry>
                </mxCell>
                <mxCell id="59" style="edgeStyle=orthogonalEdgeStyle;html=1;fontSize=8;fontColor=#000000;startArrow=none;startFill=1;strokeColor=#545454;entryX=0;entryY=0.5;entryDx=0;entryDy=0;entryPerimeter=0;" parent="1" source="119" target="56" edge="1">
                    <mxGeometry relative="1" as="geometry"/>
                </mxCell>
                <mxCell id="119" value="" style="sketch=0;points=[[0,0,0],[0.25,0,0],[0.5,0,0],[0.75,0,0],[1,0,0],[0,1,0],[0.25,1,0],[0.5,1,0],[0.75,1,0],[1,1,0],[0,0.25,0],[0,0.5,0],[0,0.75,0],[1,0.25,0],[1,0.5,0],[1,0.75,0]];outlineConnect=0;fontColor=#232F3E;gradientColor=#FF4F8B;gradientDirection=north;fillColor=#BC1356;strokeColor=#ffffff;dashed=0;verticalLabelPosition=bottom;verticalAlign=top;align=center;html=1;fontSize=12;fontStyle=0;aspect=fixed;shape=mxgraph.aws4.resourceIcon;resIcon=mxgraph.aws4.sqs;" vertex="1" parent="1">
                    <mxGeometry x="920" y="485" width="40" height="40" as="geometry"/>
                </mxCell>
                <mxCell id="120" value="" style="edgeStyle=orthogonalEdgeStyle;html=1;fontSize=8;fontColor=#000000;startArrow=classic;startFill=1;strokeColor=#545454;entryX=0;entryY=0.5;entryDx=0;entryDy=0;entryPerimeter=0;endArrow=none;" edge="1" parent="1" source="TTFCyIRM2Td2Y5yZrBj4-4" target="119">
                    <mxGeometry relative="1" as="geometry">
                        <mxPoint x="840" y="500" as="sourcePoint"/>
                        <mxPoint x="1020" y="500" as="targetPoint"/>
                    </mxGeometry>
                </mxCell>
            </root>
        </mxGraphModel>
    </diagram>
</mxfile>